<svg width="61" height="64" viewBox="0 0 61 64" fill="none" xmlns="http://www.w3.org/2000/svg">
<g clip-path="url(#clip0_48_387)">
<path d="M20.376 7.16053C20.376 7.41124 20.376 7.6069 20.376 7.80255C20.376 7.94231 20.376 8.08121 20.376 8.21589C17.8604 9.07813 15.521 10.2419 13.3654 11.7453C12.2855 12.4983 11.2759 13.3546 10.2637 14.1991C8.18687 15.9304 6.53183 18.0326 5.10294 20.3059C3.33526 23.118 2.09695 26.1579 1.51675 29.4391C1.31601 30.5724 1.19828 31.7226 1.09664 32.8703C1.02126 33.7207 0.967896 34.583 1.01956 35.4325C1.09495 36.6657 1.2491 37.8956 1.41342 39.1203C1.69208 41.2031 2.31547 43.1986 3.15654 45.1128C3.72403 46.4045 4.3957 47.6589 5.12243 48.8693C5.95926 50.2626 6.95618 51.5466 8.04542 52.7655C9.80463 54.7331 11.7883 56.4262 13.999 57.8526C15.8658 59.057 17.8333 60.0895 19.9474 60.7832C21.5567 61.3117 23.2008 61.7504 24.8516 62.1316C25.8078 62.3527 26.8064 62.4069 27.7898 62.4916C28.7918 62.578 29.7997 62.6779 30.8017 62.6508C32.4703 62.6068 34.133 62.4831 35.7855 62.1816C37.4778 61.8724 39.1354 61.4658 40.7565 60.8975C42.8672 60.1572 44.8526 59.1646 46.7592 57.9957C49.0884 56.5676 51.1153 54.7813 52.9533 52.7833C54.2509 51.373 55.3655 49.8154 56.326 48.1485C57.3594 46.3545 58.2386 44.4903 58.7857 42.4939C59.1643 41.1125 59.4261 39.6971 59.7115 38.2911C60.074 36.5031 60.0384 34.6829 59.9368 32.883C59.8521 31.3923 59.5734 29.905 59.2761 28.4363C58.8433 26.2976 58.0421 24.2733 57.0536 22.3337C56.1338 20.5279 55.0496 18.8161 53.7122 17.2881C52.761 16.2022 51.7861 15.1249 50.7223 14.1525C49.1342 12.7007 47.38 11.4599 45.4921 10.4113C43.7811 9.46098 42.0041 8.66734 40.1484 8.05072C39.8578 7.95417 39.7266 7.83135 39.7638 7.52304C39.7867 7.33331 39.7681 7.1385 39.7681 6.8717C40.2288 7.01654 40.6328 7.10886 41.0081 7.2681C42.3955 7.85676 43.7989 8.41493 45.1482 9.08237C46.9277 9.9624 48.6014 11.0347 50.104 12.3374C51.3093 13.3826 52.5112 14.4439 53.6055 15.6017C54.9099 16.9823 56.0287 18.5213 56.996 20.1679C58.1234 22.0855 59.0559 24.0861 59.7183 26.2121C60.185 27.7096 60.506 29.2342 60.7406 30.7867C61.0099 32.573 61.0464 34.3661 60.9634 36.155C60.8626 38.3047 60.5475 40.4416 59.8479 42.4863C59.3126 44.0516 58.7358 45.6134 58.0268 47.1058C57.1722 48.9057 56.1219 50.6107 54.8014 52.1184C53.7681 53.2982 52.7331 54.4874 51.5972 55.5648C50.1861 56.9031 48.6429 58.1041 46.9396 59.0561C45.5166 59.8515 44.0683 60.6129 42.5801 61.2744C40.8886 62.0257 39.1133 62.5661 37.2889 62.91C36.1454 63.1251 34.9978 63.3233 33.8475 63.5003C33.3944 63.5706 32.9294 63.5689 32.4695 63.591C31.7699 63.624 31.0685 63.6926 30.3715 63.6689C28.0481 63.5901 25.7401 63.4012 23.4642 62.8625C21.2908 62.3484 19.1894 61.6564 17.1625 60.7196C14.8612 59.6567 12.7098 58.354 10.7736 56.7201C9.70553 55.8198 8.65187 54.8889 7.69222 53.8759C5.99992 52.0904 4.58204 50.0949 3.40132 47.9266C2.24432 45.8006 1.35836 43.5722 0.799344 41.226C0.5012 39.9749 0.318248 38.6892 0.181035 37.4085C0.0522909 36.2143 -0.016316 35.0039 0.00994093 33.8037C0.0505969 31.9395 0.313166 30.0981 0.728196 28.2711C1.24656 25.9893 2.05968 23.8269 3.12181 21.7543C4.02048 20.0002 5.06906 18.335 6.36158 16.8417C7.23992 15.827 8.11911 14.803 9.08892 13.8789C10.7592 12.2874 12.6099 10.9187 14.613 9.75997C16.4265 8.71053 18.3144 7.83558 20.382 7.15968L20.376 7.16053Z" fill="black"/>
<path d="M20.3743 9.70152C20.3743 10.0217 20.409 10.3181 20.3574 10.5985C20.3362 10.7128 20.1414 10.828 20.0025 10.8839C17.5309 11.8809 15.2237 13.1674 13.1638 14.8606C12.1381 15.7042 11.1386 16.5927 10.2213 17.5515C8.7518 19.0888 7.50587 20.8014 6.48185 22.6784C5.69583 24.1183 5.014 25.5997 4.55323 27.17C4.1958 28.388 3.90189 29.6263 3.64016 30.8689C3.50888 31.4906 3.49279 32.1402 3.45975 32.7789C3.41317 33.6894 3.32847 34.6067 3.38691 35.513C3.46992 36.8012 3.62322 38.0895 3.8282 39.3651C4.10347 41.0735 4.64809 42.7141 5.32315 44.3048C6.12695 46.1987 7.10778 48.0062 8.39945 49.6062C9.45142 50.9097 10.5796 52.1641 11.7832 53.3279C13.0495 54.5527 14.5004 55.5707 16.0207 56.4711C18.1509 57.7331 20.3845 58.7665 22.7959 59.3636C24.0689 59.6787 25.353 59.9607 26.6446 60.1928C27.3697 60.3232 28.1176 60.3309 28.8562 60.3775C29.5134 60.4181 30.1775 60.502 30.8288 60.4512C32.4237 60.3266 34.0229 60.1971 35.6025 59.9573C38.6288 59.4983 41.4739 58.4522 44.1233 56.942C45.5243 56.1433 46.8295 55.1693 48.1347 54.2155C48.8758 53.6735 49.5755 53.0569 50.2132 52.397C51.9589 50.5912 53.4716 48.6126 54.66 46.3825C55.7416 44.3531 56.5564 42.2322 57.0375 39.9919C57.267 38.9221 57.4153 37.827 57.4974 36.7352C57.5898 35.5045 57.6372 34.2619 57.5754 33.0313C57.4957 31.4397 57.2103 29.8694 56.8003 28.3236C56.3624 26.6737 55.7611 25.0847 54.9937 23.5652C54.1543 21.9042 53.1955 20.3093 51.947 18.9169C50.9925 17.853 50.0616 16.7486 48.9868 15.8169C47.7756 14.7674 46.4534 13.8289 45.1075 12.954C43.455 11.88 41.6458 11.0948 39.7867 10.4274V9.3424C40.5625 9.64562 41.2969 9.91243 42.016 10.2165C43.9361 11.0288 45.7385 12.0587 47.4368 13.264C49.2239 14.5328 50.7951 16.0405 52.2452 17.6794C53.8841 19.5318 55.1902 21.6002 56.2371 23.8362C57.1442 25.7725 57.7693 27.7977 58.1903 29.8948C58.607 31.9691 58.7146 34.0671 58.5816 36.1601C58.4842 37.6872 58.2013 39.211 57.893 40.7135C57.4195 43.0208 56.5175 45.1891 55.352 47.2227C54.5846 48.5618 53.6783 49.8349 52.7212 51.0486C51.9081 52.0794 50.9671 53.0187 50.0218 53.9352C48.6607 55.2548 47.1225 56.3559 45.4971 57.33C43.4466 58.559 41.2867 59.5626 38.982 60.1979C37.5599 60.5901 36.1048 60.8806 34.6488 61.1237C33.6214 61.2956 32.5694 61.3447 31.5259 61.3871C30.4663 61.4294 29.3974 61.4701 28.3446 61.3795C26.1348 61.188 23.9563 60.8171 21.8278 60.1454C20.1575 59.6185 18.5355 58.9909 16.9923 58.1727C15.2136 57.2292 13.5018 56.1704 11.9924 54.8237C11.0717 54.0021 10.1417 53.1814 9.29727 52.2835C8.03101 50.9368 6.93838 49.4461 5.99482 47.8529C4.96064 46.1072 4.0806 44.2853 3.547 42.3254C3.17008 40.9414 2.89481 39.5277 2.6136 38.1192C2.30275 36.5565 2.29428 34.9658 2.3739 33.387C2.45521 31.7811 2.70338 30.1921 3.08115 28.6201C3.55292 26.6542 4.25255 24.7781 5.16222 22.9842C6.05496 21.2241 7.11879 19.5648 8.42655 18.0792C9.24137 17.1543 10.0545 16.2158 10.965 15.39C11.9391 14.5057 13.002 13.7112 14.0701 12.9404C15.9327 11.5963 17.9739 10.5722 20.1194 9.75573C20.1812 9.73201 20.2498 9.72863 20.3726 9.70406L20.3743 9.70152Z" fill="black"/>
<path d="M32.6313 36.8233C33.2564 35.3622 33.8891 33.9045 34.5015 32.4375C34.637 32.1123 35.0182 31.942 35.4908 32.0674C35.9075 32.1775 36.0803 32.3926 35.9219 32.7882C35.4874 33.8766 35.0715 34.981 34.5193 36.011C33.9467 37.0791 33.2225 38.065 32.5704 39.0898C32.5145 39.1771 32.4814 39.2897 32.4704 39.3939C32.3256 40.7508 32.2383 42.117 32.03 43.4646C31.8623 44.5496 31.4515 45.5736 30.4503 46.1818C29.5373 46.7365 28.7512 46.7891 28.0762 46.0285C27.7357 45.6448 27.4731 44.8418 27.8712 44.304C27.9042 44.2591 27.9635 44.2167 27.9669 44.1701C28.0457 43.0352 28.8664 42.272 29.3797 41.3564C29.555 41.043 29.7312 40.7195 29.9658 40.4527C30.4241 39.9301 30.3817 39.3575 30.2945 38.7282C30.1818 37.9159 30.1581 37.0909 30.0776 36.2685C29.8549 37.3467 29.4466 38.3521 28.8173 39.2406C28.3049 39.9639 27.7111 40.44 26.6888 40.1588C26.1493 40.0097 25.7961 39.6158 25.6317 39.1246C25.4276 38.5147 25.3006 37.8727 25.2049 37.2358C25.0609 36.2761 24.9872 35.3054 24.8491 34.3441C24.8135 34.0942 24.6831 33.841 24.54 33.6275C24.3451 33.3379 24.4951 33.1354 24.6839 32.9872C25.2176 32.5679 25.8587 32.4494 26.5008 32.5815C27.0937 32.7035 27.2546 33.2659 27.2961 33.7648C27.3977 34.9895 27.413 36.2211 27.485 37.4484C27.5129 37.9311 27.5985 38.4105 27.6595 38.8916C27.662 38.9111 27.6832 38.9281 27.773 39.0619C28.0914 38.1734 28.4243 37.3882 28.653 36.5734C29.0036 35.3258 29.3035 34.0637 29.5762 32.7966C29.6389 32.5036 29.5229 32.1639 29.4559 31.8522C29.3704 31.4558 29.4974 31.1662 29.8515 30.9959C30.1107 30.8714 30.3851 30.7308 30.6629 30.7037C31.7293 30.6012 31.9309 30.9163 32.107 31.8285C32.2798 32.7246 32.3112 33.6504 32.3832 34.5643C32.4416 35.3012 32.467 36.0398 32.5077 36.7775L32.6313 36.825V36.8233ZM30.5088 42.2144C30.015 43.3621 29.0367 44.37 29.4509 45.8447C30.6053 44.8206 30.2572 43.429 30.5088 42.2144Z" fill="black"/>
<path d="M40.9558 37.0096C41.7731 35.5731 42.3127 34.0231 42.7938 32.4485C42.931 32.0005 43.0479 31.5473 43.1868 31.1001C43.2935 30.7562 43.684 30.5326 44.0346 30.6114C44.4005 30.6935 44.5487 30.94 44.4801 31.2975C44.3793 31.826 44.3031 32.3647 44.1346 32.872C43.6509 34.3272 43.1952 35.7976 42.5964 37.207C42.0704 38.4453 40.1918 38.851 39.1745 37.7863C38.0489 36.6081 37.4187 35.1928 36.9537 33.6657C36.2939 31.4999 36.2939 29.2757 36.3913 27.0574C36.4328 26.1054 36.7225 25.1559 36.9664 24.2225C37.146 23.5364 37.9879 23.0155 38.6951 22.9867C39.3736 22.9588 40.0173 23.0528 40.4103 23.6414C40.6619 24.0175 40.8389 24.4842 40.9075 24.9323C41.0472 25.8377 41.1794 26.7601 41.1557 27.6706C41.1006 29.7873 40.7787 31.8709 39.9275 33.8317C39.7132 34.3263 39.7124 34.7625 39.9343 35.2318C40.2214 35.8382 40.4975 36.4506 40.7787 37.0604L40.9541 37.0105L40.9558 37.0096ZM38.8925 23.9972C38.6164 26.9405 38.7756 29.8762 39.2592 32.8602C39.6717 29.8491 39.648 26.9151 38.8925 23.9972Z" fill="black"/>
<path d="M8.65481 41.0159C8.97752 41.1328 9.23416 41.2251 9.5052 41.3234C9.41373 41.5953 9.24178 41.8959 9.22061 42.2059C9.14523 43.3062 9.78217 44.1092 10.9942 44.2845C12.1157 44.4471 13.2117 44.2099 14.1993 43.6255C15.4943 42.859 15.5214 41.5444 14.7786 40.5535C13.9858 39.4955 13.11 38.4919 12.1961 37.5364C11.0103 36.2973 9.72627 35.1538 8.532 33.9223C7.84085 33.2091 7.19374 32.4417 6.98877 31.4042C6.76601 30.2785 7.00147 29.2909 7.77732 28.4431C8.81744 27.3064 10.1396 26.8084 11.6532 26.8033C12.5188 26.8007 13.3362 27.0447 14.0002 27.6096C14.1823 27.7646 14.2535 28.1229 14.2611 28.3905C14.2679 28.6531 13.8571 28.7861 13.6225 28.6252C13.0457 28.2279 12.4528 27.8451 11.7184 27.901C10.5673 27.9891 9.68138 28.427 9.35528 29.567C9.12066 30.3869 9.3646 31.1865 9.88296 31.7929C10.7621 32.8229 11.7582 33.752 12.6958 34.7329C14.2552 36.3642 15.9339 37.8956 16.9791 39.9521C17.8473 41.6605 17.2493 42.9962 15.8602 44.0558C14.2763 45.2636 12.4282 45.5067 10.5191 45.3881C9.55941 45.328 8.71156 44.9401 8.17457 44.0693C7.71973 43.3333 7.66721 42.1136 8.25588 41.3454C8.37869 41.1853 8.5735 41.0811 8.65481 41.0168V41.0159Z" fill="black"/>
<path d="M22.4194 40.2545C22.5566 39.6709 22.7337 39.0924 22.8218 38.5012C22.9674 37.5254 23.0318 36.537 23.1894 35.5638C23.2215 35.3673 23.4909 35.1132 23.6942 35.0649C23.9339 35.0073 24.2227 35.1344 24.4819 35.2089C24.5166 35.2191 24.5141 35.3901 24.5149 35.4867C24.5301 36.9418 24.4217 38.3911 23.8195 39.7293C23.4299 40.595 22.8251 41.3759 21.7308 41.2692C21.11 41.2082 20.7644 40.827 20.4561 40.3722C19.7599 39.3439 19.4363 38.1632 19.2068 36.9715C18.8976 35.3673 18.6825 33.7453 18.4318 32.1301C18.3598 31.6642 18.3064 31.1958 18.2353 30.6571C17.6339 30.7986 17.0545 30.9485 16.4684 31.0679C15.9111 31.1823 15.3504 31.2898 14.7854 31.3508C14.4737 31.3847 14.151 31.3102 13.8326 31.2949C13.5336 31.2805 13.3125 31.1687 13.2744 30.8485C13.2422 30.5775 13.537 30.27 13.8715 30.2717C15.2479 30.2819 16.5565 29.9168 17.8753 29.5967C18.0947 29.5433 18.1438 29.523 18.1201 29.2579C18.0642 28.6082 18.0862 27.9493 18.1082 27.2954C18.1175 27.0066 18.624 26.6703 19.0314 26.6296C19.4261 26.5907 19.7378 26.7237 19.8479 27.1201C20.0063 27.6901 20.1258 28.2711 20.2841 28.9394C20.7585 28.8412 21.2828 28.7556 21.7943 28.6235C23.1978 28.261 24.5937 27.8654 25.9997 27.5122C26.3732 27.4182 26.7713 27.4173 27.1601 27.3953C27.4667 27.3784 27.6073 27.5774 27.659 27.8544C27.7106 28.1297 27.5582 28.2694 27.3168 28.3194C26.6019 28.4659 25.8743 28.565 25.1696 28.7497C23.7001 29.1334 22.2433 29.5679 20.7763 29.9634C20.4646 30.0473 20.4239 30.2336 20.462 30.4928C20.7695 32.5671 21.0481 34.6473 21.3988 36.7149C21.6012 37.9057 21.9222 39.0763 22.1899 40.2562C22.2661 40.2562 22.3415 40.2562 22.4177 40.2562L22.4194 40.2545Z" fill="black"/>
<path d="M29.3995 13.4597C29.5113 13.5317 29.6146 13.624 29.7349 13.6723C30.1762 13.8501 30.6259 14.0068 31.0672 14.1864C31.1485 14.2194 31.2028 14.3202 31.2697 14.3897C31.1748 14.4074 31.0664 14.4642 30.9868 14.4371C30.5091 14.2736 30.0398 14.0847 29.5621 13.9204C29.4689 13.8882 29.3504 13.9289 29.2428 13.9365C29.319 14.0153 29.3817 14.1296 29.474 14.1669C29.9424 14.3558 30.421 14.5176 30.8885 14.7056C30.9639 14.7361 31.0046 14.8504 31.0613 14.9258C30.969 14.9394 30.864 14.9868 30.786 14.9597C30.3092 14.7954 29.8399 14.6082 29.3639 14.4413C29.2606 14.4049 29.1386 14.4218 29.026 14.4134C29.0158 14.46 29.0048 14.5057 28.9946 14.5523C29.3876 14.7107 29.779 14.8708 30.1728 15.0258C30.3422 15.0927 30.5235 15.1325 30.6844 15.2138C30.7623 15.2536 30.8064 15.3612 30.8656 15.4374C30.7742 15.4509 30.6708 15.4984 30.5929 15.4721C30.089 15.2985 29.5918 15.1071 29.0903 14.9258C29.02 14.9004 28.9421 14.8996 28.8227 14.9809C28.9116 15.0368 28.9946 15.1079 29.0912 15.1452C29.5486 15.3247 30.0127 15.4874 30.4676 15.6737C30.57 15.7152 30.6429 15.8279 30.7293 15.9075L30.6395 16.0337C30.0043 15.7999 29.369 15.567 28.7338 15.3332L28.6516 15.4323C28.7227 15.5026 28.7812 15.6026 28.8667 15.6381C29.3334 15.8304 29.8094 15.9998 30.2744 16.1946C30.3676 16.2336 30.4294 16.3471 30.5057 16.4258C30.3998 16.4377 30.2821 16.486 30.1906 16.4555C29.7129 16.2937 29.236 16.1269 28.771 15.932C28.5144 15.8245 28.4458 15.9253 28.4068 16.1751C28.9328 16.3784 29.4554 16.5766 29.9729 16.7841C30.0856 16.829 30.2041 16.8934 30.2804 16.9832C30.3278 17.0399 30.3278 17.1704 30.2965 17.2466C30.2795 17.2889 30.1432 17.3228 30.0822 17.3016C29.2741 17.0187 28.4644 16.7358 27.6657 16.4275C27.3836 16.3191 27.4158 16.0896 27.5132 15.8338C28.2247 13.9721 28.8752 12.0858 29.6502 10.2512C29.9771 9.47792 29.5808 8.92059 29.3648 8.30482C29.3012 8.12272 28.9108 8.06682 28.6889 7.92367C28.522 7.81695 28.3077 7.69244 28.2459 7.52643C27.3311 5.07183 26.4384 2.60876 25.6143 0.0957108C25.7184 0.224455 25.8455 0.34134 25.9226 0.484483C27.326 3.08053 28.7244 5.67997 30.1245 8.27772C30.155 8.33447 30.1999 8.38359 30.2855 8.50048C30.5506 7.78985 30.7911 7.13935 31.0359 6.49055C31.7677 4.54923 32.5148 2.61384 33.2254 0.664894C33.3795 0.242242 33.576 0.195657 33.9504 0.347269C34.5874 0.605604 35.2633 0.791097 35.6529 1.5085C35.1354 1.32132 34.6492 1.14599 34.163 0.969813L34.0538 1.05028C34.1207 1.14599 34.1664 1.29083 34.257 1.32894C34.7991 1.55763 35.3505 1.76176 35.9248 1.98367C35.8892 2.07261 35.8553 2.15731 35.8223 2.24201C34.5806 1.7835 33.9194 1.63075 33.8386 1.78378C34.3849 1.99553 34.9321 2.20135 35.4716 2.42326C35.5716 2.46392 35.6436 2.57149 35.7291 2.64772C35.6995 2.69007 35.6698 2.73242 35.6393 2.77477C35.1066 2.57318 34.5764 2.36482 34.0394 2.17594C33.9284 2.13698 33.792 2.16916 33.6667 2.16916C33.7539 2.25132 33.8268 2.36821 33.9309 2.41056C34.3714 2.59182 34.8237 2.74428 35.265 2.92384C35.3691 2.96619 35.4479 3.07122 35.5385 3.14745C35.508 3.19234 35.4767 3.23723 35.4462 3.28212C34.888 3.07799 34.3324 2.86794 33.7709 2.67397C33.6785 2.64179 33.5625 2.67567 33.4575 2.67906L33.4515 2.82305C34.0758 3.06444 34.7 3.30668 35.3251 3.54808L35.3293 3.68444C35.2192 3.6963 35.0964 3.74627 35.0007 3.71324C34.523 3.54977 34.0554 3.35835 33.5786 3.19234C33.4786 3.15761 33.3567 3.18726 33.2449 3.18726L33.2347 3.33294C33.8716 3.57603 34.5094 3.81912 35.1464 4.06305L35.1421 4.20365C35.0286 4.21212 34.9033 4.25702 34.8042 4.22314C34.3129 4.05712 33.8293 3.86824 33.3406 3.69207C33.2635 3.66412 33.178 3.66242 33.0966 3.64887C33.0806 3.68699 33.0645 3.7251 33.0484 3.76406C33.1678 3.82674 33.2821 3.90043 33.4066 3.9504C33.8369 4.1215 34.2731 4.27565 34.7 4.45437C34.8 4.49587 34.8703 4.60683 34.955 4.6856C34.9253 4.72371 34.8957 4.76183 34.866 4.79994C34.2308 4.56617 33.5955 4.33155 32.9603 4.09778L32.873 4.22652C32.9628 4.30021 33.0407 4.4027 33.1432 4.44336C33.5608 4.60937 33.9911 4.74404 34.4053 4.91683C34.5315 4.97019 34.6212 5.11079 34.7271 5.21158C34.5907 5.20481 34.4442 5.22768 34.3206 5.18533C33.8064 5.00661 33.2991 4.80756 32.7892 4.61614C32.7578 4.65087 32.7265 4.6856 32.6952 4.72117C32.7799 4.80418 32.8502 4.9236 32.9518 4.96426C33.482 5.17855 34.0199 5.37336 34.5543 5.57495L34.5611 5.71046C34.4442 5.72232 34.3129 5.77314 34.2113 5.73926C33.7327 5.57918 33.2643 5.38945 32.7883 5.22429C32.6969 5.1921 32.5842 5.22005 32.4809 5.22005L32.4639 5.36404C33.0975 5.60967 33.7302 5.85445 34.3638 6.10008C34.3654 6.14582 34.3671 6.19156 34.3688 6.2373C34.2604 6.2517 34.1385 6.30591 34.0461 6.27457C33.5684 6.11025 33.1009 5.91713 32.624 5.75112C32.5334 5.71978 32.4157 5.76552 32.3106 5.77653C32.3911 5.85276 32.458 5.96033 32.5529 5.99929C33.0077 6.18309 33.4727 6.33979 33.9267 6.52613C34.0148 6.56255 34.0682 6.68282 34.1376 6.76413C34.0377 6.77599 33.9259 6.82342 33.8412 6.79378C33.2872 6.59981 32.7384 6.38891 32.1878 6.18394L32.0929 6.29828C32.1751 6.36774 32.2463 6.46345 32.3411 6.50241C32.8722 6.71755 33.4092 6.91913 33.9445 7.1258L33.9758 7.24777C33.8683 7.27318 33.7446 7.34517 33.6565 7.31468C33.178 7.15206 32.7104 6.95809 32.2336 6.78954C32.1345 6.75482 32.0125 6.78446 31.9007 6.78446L31.8778 6.91744C32.5088 7.15968 33.1398 7.40192 33.7709 7.64416C33.7725 7.6916 33.7742 7.73903 33.7759 7.78561C33.6599 7.79916 33.5295 7.85252 33.4295 7.81865C32.9781 7.66618 32.5368 7.48662 32.0887 7.32315C31.9786 7.2825 31.86 7.26555 31.7448 7.23845L31.6898 7.34517C31.7609 7.40277 31.8228 7.48154 31.9041 7.51373C32.3606 7.69244 32.8256 7.85252 33.2804 8.03717C33.4007 8.0863 33.4956 8.19979 33.6023 8.2828L33.5176 8.42171C32.8747 8.19048 32.2327 7.95925 31.5898 7.72802C31.5661 7.78307 31.5424 7.83813 31.5195 7.89233C32.0616 8.30906 32.7892 8.36242 33.3982 8.8181C33.294 8.8342 33.1771 8.8901 33.089 8.86045C32.6105 8.69952 32.1412 8.51318 31.6652 8.34717C31.561 8.31075 31.4399 8.326 31.3264 8.31753L31.2934 8.46236C31.9236 8.7063 32.5537 8.94939 33.1839 9.19332L33.2042 9.3119C33.1093 9.33731 33.0001 9.40846 32.9222 9.3822C32.4436 9.22127 31.9727 9.03663 31.4984 8.86469C31.3925 8.82657 31.279 8.8054 31.1697 8.7766L31.1181 8.89772C31.2654 8.9731 31.4069 9.06289 31.561 9.12218C31.9532 9.27464 32.3538 9.40338 32.7426 9.56346C32.8544 9.61005 32.9357 9.73117 33.0306 9.81756L32.9527 9.94038C32.2996 9.70576 31.6457 9.47029 30.9927 9.23567C30.9698 9.28565 30.9478 9.33477 30.9249 9.38475C31.024 9.45166 31.1155 9.5389 31.2248 9.58125C31.6686 9.75488 32.1209 9.90565 32.5613 10.0869C32.6647 10.1293 32.7316 10.258 32.8154 10.3469L32.7197 10.4469C32.3437 10.3114 31.9676 10.1758 31.489 10.0031C31.6093 10.1403 31.6483 10.2131 31.7084 10.2478C32.4021 10.6375 33.0746 11.0787 33.8013 11.393C34.6602 11.764 35.1811 12.3797 35.3259 13.2615C35.4649 14.1059 35.2565 14.8809 34.5086 15.4289C33.5489 16.1328 32.0489 15.6398 31.5551 14.4142C31.423 14.0864 31.2417 13.9314 30.9241 13.8315C30.4379 13.679 29.9653 13.4808 29.4876 13.303L29.3978 13.4605L29.3995 13.4597ZM31.9659 13.3885C31.9659 13.4444 31.9617 13.5012 31.9659 13.5571C32.0489 14.5972 33.0043 15.3451 33.864 15.0444C34.5374 14.8089 34.8813 14.0153 34.667 13.1886C34.4637 12.4026 33.7742 11.8969 33.0314 11.9884C32.4114 12.0646 31.9617 12.6542 31.9642 13.3885H31.9659ZM28.8828 7.79662C29.0582 7.56116 29.242 7.4214 29.2309 7.30028C29.2199 7.17831 29.0277 7.01654 28.8888 6.9835C28.8108 6.96572 28.5999 7.17069 28.594 7.2825C28.5872 7.41463 28.7371 7.55438 28.8828 7.79662ZM31.2256 13.6375C31.0732 13.2665 29.8958 12.8142 29.5376 12.9963C30.1186 13.2174 30.6488 13.4182 31.2256 13.6375ZM29.7425 12.533C30.1889 12.6999 30.5912 12.8507 31.0596 13.0251C30.825 12.5534 30.0237 12.2637 29.7425 12.533ZM30.7327 12.3255L30.8089 12.1765C30.559 12.057 30.3092 11.9384 30.0593 11.819C30.0297 11.8792 29.9992 11.9384 29.9695 11.9986C30.2236 12.1078 30.4786 12.2171 30.7327 12.3255Z" fill="black"/>
<path d="M47.5524 33.3455C47.7684 34.0062 47.8709 34.7142 48.3986 35.2419C48.6484 35.4918 48.9042 35.5604 49.2634 35.4469C50.1493 35.1657 50.6821 34.5008 51.1733 33.7851C51.9509 32.6535 52.2431 31.3423 52.5116 30.0295C52.5972 29.6111 52.8775 29.4476 53.2112 29.3485C53.6152 29.2291 53.8795 29.4586 53.871 29.8889C53.8516 30.9011 53.5551 31.8539 53.1875 32.7814C52.7818 33.8046 52.277 34.7795 51.4834 35.5646C50.2865 36.7487 48.3334 37.1528 47.0002 36.4311C45.9787 35.878 45.3426 34.9853 45.1021 33.8808C44.842 32.6908 44.7912 31.4745 45.0639 30.2624C45.2918 29.2503 45.7746 28.4109 46.7148 27.9366C47.6854 27.447 48.7077 27.1827 49.8046 27.5537C50.6829 27.851 51.2538 28.6514 51.1606 29.5814C51.1081 30.1133 51.0658 30.6715 50.871 31.1577C50.4009 32.3316 49.4294 32.9381 48.2343 33.2227C48.0191 33.2735 47.7989 33.3014 47.5533 33.3455H47.5524ZM47.3669 32.5798C48.1496 32.4782 48.6468 32.2004 48.9042 31.8903C49.5488 31.1111 49.5632 29.7051 49.0364 28.8683C48.8085 28.5066 48.5028 28.4549 48.2173 28.7827C48.0039 29.0275 47.8201 29.3214 47.7091 29.6255C47.3678 30.5665 47.328 31.5507 47.3669 32.579V32.5798Z" fill="black"/>
<path d="M28.195 8.04395C28.5948 8.19923 28.7345 8.46999 28.6143 8.85622C28.0417 10.7035 27.481 12.5551 26.8915 14.3973C26.6501 15.152 26.1351 15.6839 25.3491 15.8753C24.3428 16.1209 23.3502 15.4933 23.0867 14.482C22.7581 13.2208 23.3917 12.0621 24.5944 11.5564C26.1173 10.9161 27.3294 9.90734 28.0273 8.36242C28.073 8.26163 28.1306 8.16507 28.1941 8.04395H28.195ZM26.3841 13.48C26.3841 12.4289 25.4024 11.7775 24.464 12.3179C23.6525 12.7854 23.3917 14.0449 23.9515 14.7954C24.3716 15.3586 25.1111 15.4696 25.665 15.0435C26.1385 14.6793 26.4027 14.205 26.3841 13.48Z" fill="black"/>
<path d="M51.3306 23.4983C50.7225 24.0022 50.1177 24.5104 49.5054 25.0093C48.9802 25.4371 48.4331 25.8402 47.9198 26.2824C47.4573 26.6805 46.4909 26.6152 46.1462 26.1164C46.1038 26.0554 46.1292 25.8911 46.1851 25.8292C47.0313 24.8831 47.8842 23.9421 48.7448 23.0096C48.8413 22.9045 49.0166 22.7707 49.1234 22.7944C49.8569 22.9571 50.5819 23.1586 51.3095 23.3475C51.3162 23.3983 51.323 23.4492 51.3306 23.4991V23.4983Z" fill="black"/>
<path d="M32.164 0.0465848C31.4322 2.41903 30.7004 4.79147 29.933 7.27995C29.6552 6.77938 29.4206 6.3779 29.2139 5.96287C29.1783 5.89088 29.2478 5.75366 29.2927 5.65795C30.1312 3.88264 30.9714 2.10818 31.8167 0.336258C31.8743 0.215138 31.97 0.112651 32.048 0.000846863L32.164 0.0474318V0.0465848Z" fill="black"/>
<path d="M47.2202 48.0341C47.0127 46.9822 46.8052 45.9302 46.5977 44.8791C46.651 44.8545 46.7035 44.8299 46.7569 44.8054C47.05 45.256 47.343 45.7057 47.6979 46.2504C47.8114 45.5829 47.9063 45.0239 48.002 44.4649L48.1892 44.4615C48.4399 45.5846 48.6897 46.7077 48.9405 47.8309C48.8812 47.8461 48.821 47.8614 48.7617 47.8758C48.561 47.0279 48.3611 46.1792 48.1604 45.3314L48.0858 45.328C47.985 45.7549 47.8842 46.1826 47.7835 46.6095C47.7394 46.6078 47.6954 46.6061 47.6513 46.6044C47.4658 46.2809 47.2795 45.9565 47.094 45.6329C47.0644 45.638 47.0347 45.6439 47.0042 45.649C47.138 46.435 47.2727 47.221 47.4065 48.0079C47.3447 48.0172 47.2837 48.0257 47.2219 48.035L47.2202 48.0341Z" fill="black"/>
<path d="M21.2251 49.9255C21.4978 50.0068 21.8307 50.0178 22.0289 50.1872C22.2601 50.3846 22.3406 50.7208 22.067 51.0478C22.6354 51.2731 22.9606 51.7016 23.047 52.2691C23.086 52.5249 23.0504 52.8502 22.9157 53.0585C22.7811 53.2686 22.4821 53.3736 22.2551 53.5244C22.1373 53.3203 21.9713 53.1297 21.9086 52.9095C21.6418 51.9718 21.4055 51.0257 21.1582 50.083C21.1802 50.0305 21.2022 49.9789 21.2243 49.9263L21.2251 49.9255ZM22.2178 53.2974C22.7717 53.1585 22.9716 52.8561 22.8598 52.3792C22.6642 51.5424 22.2983 51.1951 21.6867 51.3341C21.8638 51.9905 22.0408 52.6444 22.2178 53.2974ZM21.6054 51.0605C21.9442 50.9868 22.0391 50.7877 21.9662 50.5302C21.8934 50.2745 21.7248 50.1067 21.381 50.2092C21.458 50.5023 21.53 50.775 21.6054 51.0605Z" fill="black"/>
<path d="M45.8771 48.6313C45.8347 48.5262 45.7737 48.4255 45.7526 48.317C45.562 47.3277 45.3765 46.3385 45.1935 45.3475C45.147 45.0934 45.429 44.9189 45.7373 45.0061C46.1312 45.1171 46.3734 45.6736 46.2328 46.164C46.1989 46.2842 46.1371 46.3961 46.182 46.4816C46.3666 47.0355 46.5521 47.5895 46.7368 48.1434C46.6758 48.1646 46.6148 48.1866 46.553 48.2078C46.4971 48.0511 46.4352 47.8952 46.3861 47.736C46.3328 47.5624 46.3226 47.3667 46.2353 47.2134C46.1413 47.0474 45.9804 46.9186 45.8483 46.7738C45.8178 46.9432 45.7441 47.1177 45.7661 47.2803C45.8237 47.7191 45.922 48.1519 46.0041 48.5872L45.8754 48.6313H45.8771ZM45.4222 45.2602C45.4951 45.6854 45.5645 46.0886 45.6357 46.5053C45.9863 46.319 46.1235 45.9048 45.977 45.5203C45.8923 45.2983 45.7568 45.1213 45.4214 45.2602H45.4222Z" fill="black"/>
<path d="M24.1168 51.0842C24.2964 51.6271 24.4759 52.17 24.6555 52.7121L24.5115 52.768C24.1151 52.3742 24.4149 51.5534 23.6069 51.2824C23.7187 51.971 23.817 52.5715 23.9144 53.1712C23.8661 53.1814 23.8178 53.1924 23.7695 53.2025C23.6831 52.8383 23.5832 52.4758 23.5146 52.1082C23.385 51.4196 23.2698 50.7284 23.1588 50.0364C23.1385 49.9128 23.1326 49.6832 23.1732 49.6697C23.3486 49.6138 23.5612 49.5638 23.728 49.6155C24.1185 49.7383 24.2955 50.288 24.1354 50.7657C24.0999 50.8716 24.0507 50.9724 24.0075 51.0757C24.0448 51.0783 24.0812 51.0799 24.1185 51.0825L24.1168 51.0842ZM23.562 51.0825C23.9898 50.8242 24.0651 50.0924 23.728 49.8416C23.6577 49.79 23.5358 49.7493 23.4655 49.7756C23.4104 49.7959 23.3604 49.934 23.3714 50.011C23.4197 50.3558 23.4917 50.6971 23.562 51.0816V51.0825Z" fill="black"/>
<path d="M36.6641 46.6578C37.1197 46.8246 38.2048 49.6333 38.0794 50.133C37.7533 49.9678 38.0201 49.2462 37.3501 49.3902C36.7699 49.5147 37.1968 50.0085 36.8826 50.2618C36.8106 49.0734 36.7386 47.8851 36.6641 46.6578ZM36.9724 47.2744C36.9419 47.2786 36.9114 47.2829 36.8809 47.2871C36.9385 47.9198 36.9961 48.5525 37.0579 49.2276C37.268 49.1767 37.4365 49.1352 37.6398 49.0861C37.4103 48.4627 37.1917 47.8681 36.9732 47.2744H36.9724Z" fill="black"/>
<path d="M42.4264 49.2174C42.3298 48.9675 42.2324 48.7177 42.1189 48.4246C41.8979 48.4636 41.6751 48.5025 41.4329 48.5449V49.3351C41.3846 49.3377 41.3372 49.3402 41.2889 49.3428C41.2126 48.1544 41.1364 46.9669 41.061 45.7786L41.1695 45.7185C41.2414 45.7727 41.3524 45.8116 41.3795 45.8828C41.7725 46.9127 42.1562 47.9461 42.5348 48.9819C42.5568 49.0429 42.5196 49.1259 42.5103 49.1996C42.4823 49.2055 42.4543 49.2115 42.4264 49.2174ZM41.3643 46.3164C41.3355 46.3147 41.3067 46.3139 41.2779 46.3122C41.3363 46.9618 41.3956 47.6106 41.4583 48.3026C41.6768 48.2467 41.8454 48.2044 42.0376 48.1553C41.8047 47.5192 41.5845 46.9178 41.3643 46.3173V46.3164Z" fill="black"/>
<path d="M50.6004 46.6916C50.5783 46.8433 50.597 47.0177 50.5258 47.1406C50.4284 47.3091 50.2777 47.5336 50.1218 47.559C49.9422 47.5878 49.6534 47.4827 49.5475 47.3371C48.9877 46.5697 48.8098 45.6778 48.9131 44.7512C48.9352 44.5538 49.2054 44.3133 49.4163 44.2243C49.7059 44.1024 49.9507 44.3395 50.0396 44.5928C50.2785 45.2729 50.4674 45.9709 50.6757 46.662C50.6503 46.6722 50.6249 46.6823 50.6004 46.6925V46.6916ZM50.3869 46.7636C50.4216 46.7501 50.4572 46.7357 50.4919 46.7221C50.2556 46.0293 50.0303 45.3322 49.7728 44.6478C49.7305 44.536 49.517 44.3895 49.4323 44.4158C49.3078 44.4556 49.1596 44.6267 49.1418 44.7579C49.102 45.0544 49.0825 45.3729 49.1511 45.66C49.2731 46.1716 49.4434 46.6756 49.6441 47.1617C49.6958 47.2862 49.9312 47.3769 50.0922 47.393C50.1591 47.3997 50.2607 47.177 50.3251 47.0482C50.3666 46.9635 50.3683 46.8594 50.3886 46.7636H50.3869Z" fill="black"/>
<path d="M17.4237 54.2138C17.2483 53.2322 17.0679 52.2742 16.9112 51.312C16.8511 50.9402 17.023 50.7979 17.372 50.9571C17.5964 51.0596 17.8734 51.2536 17.9369 51.4636C18.1241 52.0836 18.2757 52.7282 18.3266 53.3719C18.3672 53.8894 18.0115 54.1681 17.4228 54.213L17.4237 54.2138ZM17.6024 54.0453C18.119 53.8479 18.2402 53.4016 18.0792 52.4902C17.9192 51.5831 17.6337 51.1833 17.1103 51.1706C17.2729 52.1218 17.4355 53.067 17.6032 54.0461L17.6024 54.0453Z" fill="black"/>
<path d="M40.0785 49.8179C39.8422 48.6584 39.6058 47.498 39.3721 46.3512C39.8151 46.1115 40.1911 46.2216 40.4223 46.6239C40.7256 47.1499 40.6968 47.8114 40.2885 48.2323C40.0624 48.4653 40.0717 48.6973 40.114 48.9625C40.1581 49.2386 40.2081 49.513 40.2555 49.7883L40.0785 49.8188V49.8179ZM39.9692 48.179C40.4003 47.8537 40.4833 47.3676 40.2335 46.8043C40.1293 46.5688 40.0022 46.3554 39.649 46.4714C39.7566 47.0465 39.8608 47.6013 39.9692 48.179Z" fill="black"/>
<path d="M24.6763 49.4427C24.7365 49.6595 24.7958 49.8764 24.8576 50.0923C25.0389 50.7251 25.2083 51.3612 25.4124 51.9862C25.4785 52.1895 25.5996 52.4199 26.0171 52.2725C25.824 51.2748 25.6284 50.2592 25.4319 49.2437L25.5437 49.2055C25.5919 49.2902 25.6656 49.3699 25.6851 49.4605C25.8613 50.2821 26.0442 51.1037 26.1832 51.932C26.2111 52.0989 26.1052 52.3818 25.9731 52.4555C25.8444 52.5283 25.5089 52.469 25.4276 52.3538C24.8263 51.495 24.7246 50.4727 24.4917 49.4944C24.5535 49.4774 24.6145 49.4596 24.6763 49.4427Z" fill="black"/>
<path d="M28.1934 52.2776C27.8885 51.8524 27.5827 51.4272 27.2778 51.002C27.2295 51.0071 27.1812 51.0122 27.133 51.0173V52.4826C27.0813 52.48 27.0296 52.4767 26.9771 52.4741C26.9771 52.0303 26.9221 51.578 26.9941 51.146C27.0542 50.786 26.9703 50.5277 26.7637 50.2601C26.5367 49.9662 26.33 49.657 26.1572 49.3182C26.618 49.386 26.6426 49.8967 27.0093 50.1339C27.044 49.69 27.0762 49.2699 27.1093 48.849C27.1736 48.8532 27.2388 48.8566 27.3032 48.8608C27.3032 49.0582 27.3481 49.2691 27.2956 49.4512C27.0534 50.2948 27.3972 50.9478 27.919 51.5611C28.0791 51.7491 28.2078 51.9642 28.351 52.1675C28.2984 52.2048 28.2451 52.2412 28.1926 52.2785L28.1934 52.2776Z" fill="black"/>
<path d="M34.1173 50.1737C34.2003 50.2965 34.2232 50.3456 34.2588 50.382C34.3714 50.4964 34.4892 50.6065 34.6052 50.7183C34.6552 50.5565 34.7466 50.3947 34.7475 50.2321C34.75 49.7663 34.4942 49.4215 34.1808 49.0971C33.8446 48.7482 33.4389 48.4051 33.5651 47.8368C33.5981 47.6886 33.726 47.5065 33.859 47.4463C34.086 47.343 34.2562 47.4641 34.4062 47.7597C34.3452 47.7657 34.2918 47.7826 34.2435 47.7733C34.108 47.747 33.975 47.7089 33.8404 47.6759C33.8141 47.8487 33.7142 48.0587 33.7785 48.1858C33.9132 48.4517 34.1199 48.6889 34.324 48.9116C34.7424 49.3673 35.1058 49.834 34.9372 50.5108C34.8695 50.7818 34.7348 51.0139 34.4206 50.919C34.119 50.8276 34.0123 50.5794 34.1173 50.1737Z" fill="black"/>
<path d="M19.9953 53.8285C19.7192 53.8996 19.443 53.9699 19.1339 54.0495C18.8976 53.0264 18.6621 52.0328 18.447 51.0342C18.4292 50.9521 18.5257 50.7784 18.6028 50.7539C18.823 50.6836 19.061 50.6683 19.2914 50.631C19.3033 50.6692 19.3151 50.7073 19.327 50.7454C19.1254 50.8182 18.9238 50.8911 18.674 50.9809C18.7714 51.4391 18.8722 51.9126 18.9789 52.4157C19.1906 52.3657 19.388 52.32 19.5862 52.2742C19.5989 52.3098 19.6116 52.3462 19.6243 52.3818C19.4346 52.4733 19.2448 52.5656 19.0399 52.6647C19.1186 53.0467 19.194 53.4143 19.2745 53.8064C19.5354 53.7641 19.7615 53.7277 19.9868 53.6913L19.9944 53.8293L19.9953 53.8285Z" fill="black"/>
<path d="M44.1915 47.2617C44.4278 47.2015 44.6091 47.155 44.7895 47.1084L44.8327 47.2066C44.6498 47.3015 44.4677 47.3964 44.2585 47.5056C44.3067 47.7673 44.3847 48.0367 44.4007 48.3094C44.4202 48.6397 44.5854 48.6685 44.8437 48.5982C44.9589 48.5669 45.0775 48.5457 45.1944 48.5203C45.2062 48.5627 45.2173 48.605 45.2291 48.6482C44.9437 48.7278 44.6574 48.8083 44.3372 48.8981C44.1034 47.8639 43.8756 46.8712 43.6622 45.8751C43.6444 45.793 43.7096 45.6236 43.7672 45.6075C44.012 45.5389 44.2695 45.5135 44.5219 45.472L44.5532 45.5939C44.3423 45.6659 44.1314 45.7371 43.8807 45.8226C43.9815 46.2902 44.084 46.7636 44.1915 47.2625V47.2617Z" fill="black"/>
<path d="M33.0398 47.9842C32.8323 48.046 32.6256 48.1078 32.3741 48.1832C32.4749 48.655 32.5765 49.1276 32.6841 49.6299C32.8941 49.5765 33.0873 49.5274 33.2812 49.4783C33.2965 49.5113 33.3109 49.5443 33.3261 49.5765C33.1465 49.6697 32.967 49.7637 32.7527 49.8747C32.823 50.2414 32.895 50.6192 32.9712 51.019C33.238 50.9741 33.4642 50.936 33.6903 50.8978L33.7191 51.0156C33.4337 51.0952 33.1491 51.1757 32.8332 51.2637C32.5985 50.2313 32.369 49.2386 32.1547 48.2434C32.1369 48.162 32.2055 47.9918 32.2657 47.9757C32.5113 47.9071 32.7688 47.8825 33.022 47.841C33.028 47.8885 33.0339 47.9359 33.0398 47.9842Z" fill="black"/>
<path d="M29.479 51.8804C29.2021 51.9507 28.9242 52.0218 28.6075 52.1023C28.372 51.074 28.1382 50.0669 27.9172 49.0573C27.9019 48.9879 27.9722 48.8396 28.029 48.8244C28.2746 48.7575 28.5295 48.727 28.7811 48.6829L28.8133 48.81C28.6134 48.8778 28.4143 48.9447 28.1467 49.0353C28.2441 49.4901 28.3474 49.9721 28.4558 50.4777C28.6727 50.421 28.8649 50.3702 29.0572 50.3202C29.0716 50.3515 29.0852 50.3837 29.0996 50.4151C28.9183 50.5142 28.7379 50.6124 28.5278 50.7268C28.5727 50.9749 28.6456 51.2324 28.6617 51.4933C28.6845 51.8617 28.8539 51.91 29.1589 51.7914C29.2546 51.7542 29.3689 51.7635 29.4739 51.7516L29.479 51.8812V51.8804Z" fill="black"/>
<path d="M43.9592 48.8125C43.6805 48.921 43.4027 49.0294 43.0597 49.1632C42.7793 47.9943 42.5049 46.85 42.2305 45.7057L42.3321 45.6363C42.3999 45.76 42.4981 45.876 42.5303 46.0081C42.737 46.85 42.9275 47.6962 43.1257 48.5398C43.1478 48.6347 43.18 48.7261 43.2189 48.8549C43.4586 48.7973 43.689 48.7422 43.9194 48.6872L43.9592 48.8117V48.8125Z" fill="black"/>
<path d="M30.3792 51.5729C30.6375 51.5009 30.8467 51.4425 31.0559 51.3849C31.0712 51.4255 31.0864 51.467 31.1016 51.5077C30.8255 51.6212 30.5486 51.7347 30.2047 51.8761C29.9218 50.7013 29.6465 49.5579 29.3721 48.4144C29.406 48.3916 29.4407 48.3679 29.4746 48.345C29.5423 48.4687 29.6406 48.5847 29.6728 48.7168C29.882 49.5723 30.0768 50.4312 30.2792 51.2875C30.3012 51.3798 30.3419 51.4687 30.3792 51.5738V51.5729Z" fill="black"/>
<path d="M31.733 51.2307C31.9905 51.163 32.2006 51.1071 32.4106 51.052C32.4267 51.0952 32.442 51.1384 32.4581 51.1816C32.1785 51.29 31.899 51.3984 31.5577 51.5306C31.2765 50.3642 31.0004 49.2216 30.7251 48.079C30.759 48.0553 30.7929 48.0316 30.8259 48.0079C30.8945 48.1282 30.9944 48.2417 31.0258 48.3713C31.2358 49.2259 31.4298 50.0847 31.6314 50.941C31.6534 51.0342 31.6941 51.1223 31.7322 51.2307H31.733Z" fill="black"/>
</g>
<defs>
<clipPath id="clip0_48_387">
<rect width="61" height="63.674" fill="white"/>
</clipPath>
</defs>
</svg>
