<svg width="27" height="18" viewBox="0 0 27 18" fill="none" xmlns="http://www.w3.org/2000/svg">
<path d="M0.5 1.125C0.5 0.77375 0.777527 0.5 1.125 0.5H25.875C26.2225 0.5 26.5 0.77375 26.5 1.125C26.5 1.46559 26.2181 1.75 25.875 1.75H1.125C0.781874 1.75 0.5 1.46559 0.5 1.125ZM0.5 9C0.5 8.64875 0.777527 8.375 1.125 8.375H25.875C26.2225 8.375 26.5 8.64875 26.5 9C26.5 9.34059 26.2181 9.625 25.875 9.625H1.125C0.781874 9.625 0.5 9.34059 0.5 9ZM12.875 16.875C12.875 16.5238 13.1525 16.25 13.5 16.25H25.875C26.2225 16.25 26.5 16.5238 26.5 16.875C26.5 17.2156 26.2181 17.5 25.875 17.5H13.5C13.1569 17.5 12.875 17.2156 12.875 16.875Z" fill="#E09550" stroke="black"/>
</svg>
