<svg width="583" height="608" viewBox="0 0 583 608" fill="none" xmlns="http://www.w3.org/2000/svg">
<g clip-path="url(#clip0_29_440)">
<path d="M194.565 68.3733C194.565 70.7672 194.565 72.6355 194.565 74.5037C194.565 75.8382 194.565 77.1646 194.565 78.4505C170.545 86.6838 148.207 97.7963 127.624 112.152C117.312 119.342 107.671 127.519 98.0066 135.582C78.1756 152.113 62.3722 172.187 48.7283 193.894C31.8493 220.745 20.0251 249.772 14.485 281.104C12.5682 291.925 11.4441 302.908 10.4735 313.867C9.75373 321.987 9.2442 330.22 9.73755 338.332C10.4574 350.108 11.9293 361.851 13.4983 373.546C16.1592 393.434 22.1117 412.488 30.1428 430.766C35.5615 443.1 41.9751 455.078 48.9143 466.635C56.9049 479.939 66.4242 492.2 76.8249 503.839C93.623 522.626 112.564 538.794 133.673 552.413C151.499 563.914 170.286 573.773 190.473 580.397C205.84 585.443 221.538 589.633 237.301 593.272C246.432 595.383 255.967 595.901 265.357 596.709C274.925 597.534 284.549 598.489 294.117 598.23C310.05 597.809 325.926 596.629 341.705 593.749C357.864 590.797 373.692 586.915 389.171 581.488C409.326 574.42 428.284 564.941 446.489 553.78C468.73 540.144 488.084 523.087 505.634 504.008C518.024 490.542 528.668 475.669 537.839 459.753C547.706 442.623 556.101 424.822 561.326 405.759C564.941 392.568 567.44 379.054 570.166 365.628C573.627 348.555 573.288 331.175 572.317 313.988C571.508 299.754 568.848 285.552 566.009 271.528C561.876 251.106 554.225 231.777 544.787 213.256C536.003 196.013 525.651 179.668 512.881 165.078C503.798 154.709 494.489 144.422 484.331 135.137C469.167 121.275 452.417 109.426 434.39 99.4138C418.053 90.3394 401.085 82.7613 383.365 76.8734C380.59 75.9514 379.337 74.7787 379.693 71.8348C379.911 70.0231 379.733 68.163 379.733 65.6154C384.133 66.9984 387.991 67.8799 391.573 69.4004C404.821 75.0213 418.222 80.3511 431.106 86.7242C448.098 95.1273 464.08 105.366 478.427 117.805C489.936 127.785 501.412 137.919 511.862 148.975C524.317 162.158 535.001 176.853 544.237 192.576C555.001 210.886 563.906 229.99 570.231 250.29C574.687 264.589 577.752 279.146 579.992 293.971C582.564 311.028 582.912 328.15 582.119 345.231C581.157 365.757 578.148 386.163 571.468 405.686C566.357 420.632 560.849 435.546 554.079 449.797C545.919 466.983 535.89 483.264 523.281 497.66C513.415 508.926 503.531 520.281 492.686 530.568C479.212 543.347 464.476 554.815 448.212 563.906C434.624 571.5 420.794 578.771 406.584 585.087C390.433 592.261 373.481 597.421 356.06 600.705C345.142 602.759 334.183 604.652 323.2 606.342C318.873 607.013 314.433 606.997 310.042 607.207C303.361 607.523 296.664 608.178 290.008 607.951C267.824 607.199 245.785 605.396 224.053 600.252C203.3 595.343 183.235 588.735 163.881 579.79C141.907 569.64 121.364 557.201 102.875 541.6C92.6768 533.003 82.6157 524.114 73.4524 514.442C57.2932 497.393 43.7544 478.338 32.4801 457.634C21.4324 437.334 12.9726 416.055 7.63475 393.652C4.78789 381.706 3.04095 369.429 1.73074 357.201C0.501412 345.797 -0.15369 334.24 0.0970279 322.78C0.485237 304.979 2.99242 287.396 6.95539 269.951C11.9051 248.163 19.6692 227.515 29.8112 207.724C38.3922 190.974 48.4048 175.074 60.7466 160.816C69.1335 151.126 77.5285 141.348 86.789 132.525C102.738 117.328 120.409 104.258 139.537 93.1944C156.853 83.1737 174.88 74.8191 194.622 68.3652L194.565 68.3733Z" fill="black"/>
<path d="M194.549 92.6363C194.549 95.6935 194.881 98.5242 194.388 101.201C194.185 102.293 192.325 103.393 190.999 103.927C167.399 113.446 145.368 125.731 125.699 141.898C115.905 149.954 106.361 158.438 97.6023 167.593C83.5701 182.272 71.6731 198.625 61.8951 216.548C54.3898 230.297 47.8792 244.442 43.4795 259.437C40.0665 271.067 37.26 282.891 34.7609 294.756C33.5073 300.692 33.3537 306.895 33.0383 312.993C32.5934 321.688 31.7847 330.447 32.3427 339.101C33.1353 351.402 34.5992 363.703 36.5564 375.883C39.1849 392.196 44.3853 407.862 50.8312 423.051C58.5064 441.135 67.8719 458.394 80.2057 473.672C90.2506 486.118 101.023 498.096 112.516 509.209C124.607 520.904 138.461 530.625 152.979 539.222C173.319 551.273 194.646 561.14 217.672 566.842C229.828 569.85 242.089 572.544 254.423 574.76C261.346 576.005 268.487 576.078 275.539 576.523C281.816 576.911 288.156 577.712 294.376 577.226C309.605 576.037 324.874 574.8 339.958 572.511C368.855 568.128 396.022 558.139 421.32 543.719C434.697 536.092 447.16 526.792 459.623 517.685C466.7 512.509 473.381 506.621 479.471 500.32C496.139 483.078 510.584 464.185 521.931 442.89C532.259 423.512 540.039 403.26 544.633 381.868C546.825 371.653 548.24 361.196 549.025 350.771C549.906 339.02 550.359 327.155 549.769 315.404C549.008 300.207 546.283 285.212 542.368 270.452C538.187 254.697 532.445 239.525 525.117 225.016C517.103 209.156 507.947 193.927 496.026 180.63C486.911 170.472 478.023 159.926 467.76 151.029C456.194 141.009 443.569 132.048 430.718 123.693C414.939 113.438 397.664 105.941 379.911 99.5675V89.2072C387.319 92.1025 394.331 94.6502 401.198 97.5536C419.533 105.31 436.743 115.144 452.959 126.653C470.024 138.769 485.027 153.165 498.873 168.814C514.523 186.502 526.994 206.252 536.99 227.604C545.652 246.092 551.621 265.43 555.64 285.455C559.62 305.262 560.647 325.295 559.377 345.28C558.447 359.862 555.745 374.411 552.802 388.759C548.281 410.79 539.667 431.494 528.539 450.913C521.211 463.699 512.557 475.855 503.418 487.445C495.654 497.288 486.669 506.257 477.643 515.008C464.646 527.608 449.959 538.122 434.438 547.423C414.858 559.158 394.234 568.742 372.228 574.808C358.649 578.553 344.754 581.327 330.851 583.648C321.041 585.29 310.996 585.759 301.032 586.163C290.914 586.568 280.708 586.956 270.655 586.09C249.554 584.263 228.752 580.72 208.428 574.307C192.479 569.276 176.991 563.283 162.255 555.47C145.271 546.461 128.926 536.351 114.514 523.492C105.722 515.647 96.842 507.81 88.7786 499.237C76.6875 486.377 66.2544 472.143 57.2447 456.93C47.3696 440.261 38.9665 422.865 33.8713 404.15C30.2723 390.934 27.6438 377.436 24.9587 363.986C21.9905 349.065 21.9096 333.876 22.6698 318.8C23.4463 303.466 25.816 288.294 29.4231 273.283C33.9279 254.511 40.6083 236.597 49.2945 219.467C57.8189 202.661 67.9771 186.817 80.4645 172.632C88.2448 163.8 96.009 154.839 104.703 146.953C114.004 138.51 124.154 130.923 134.353 123.564C152.138 110.728 171.629 100.95 192.115 93.1539C192.705 92.9275 193.36 92.8951 194.533 92.6606L194.549 92.6363Z" fill="black"/>
<path d="M311.586 351.612C317.555 337.661 323.596 323.742 329.444 309.734C330.738 306.629 334.377 305.003 338.89 306.2C342.869 307.251 344.519 309.306 343.007 313.082C338.858 323.475 334.887 334.021 329.614 343.856C324.146 354.055 317.231 363.469 311.004 373.255C310.47 374.088 310.155 375.164 310.05 376.158C308.667 389.115 307.834 402.16 305.844 415.028C304.243 425.388 300.32 435.166 290.76 440.973C282.042 446.27 274.537 446.772 268.091 439.509C264.839 435.845 262.332 428.178 266.133 423.043C266.449 422.614 267.015 422.21 267.047 421.765C267.8 410.927 275.636 403.64 280.538 394.898C282.212 391.905 283.894 388.816 286.134 386.268C290.51 381.278 290.105 375.811 289.272 369.801C288.197 362.045 287.97 354.168 287.202 346.315C285.075 356.61 281.177 366.21 275.167 374.694C270.274 381.601 264.605 386.147 254.843 383.462C249.691 382.038 246.319 378.277 244.75 373.586C242.8 367.763 241.587 361.633 240.673 355.551C239.299 346.388 238.595 337.119 237.277 327.94C236.937 325.554 235.691 323.135 234.325 321.097C232.464 318.331 233.896 316.398 235.699 314.983C240.795 310.98 246.917 309.847 253.048 311.109C258.709 312.274 260.246 317.644 260.642 322.408C261.612 334.102 261.758 345.862 262.445 357.581C262.712 362.191 263.529 366.769 264.112 371.362C264.136 371.548 264.338 371.71 265.195 372.988C268.236 364.504 271.415 357.007 273.598 349.226C276.947 337.313 279.81 325.263 282.414 313.163C283.012 310.365 281.904 307.122 281.266 304.146C280.449 300.361 281.662 297.595 285.042 295.969C287.517 294.78 290.138 293.437 292.79 293.179C302.973 292.2 304.898 295.209 306.58 303.919C308.23 312.476 308.529 321.316 309.217 330.042C309.775 337.079 310.017 344.131 310.405 351.175L311.586 351.628V351.612ZM291.319 403.09C286.603 414.049 277.262 423.674 281.217 437.754C292.241 427.976 288.916 414.688 291.319 403.09Z" fill="black"/>
<path d="M391.072 353.392C398.877 339.675 404.029 324.874 408.622 309.839C409.933 305.561 411.049 301.234 412.375 296.964C413.394 293.68 417.123 291.545 420.471 292.297C423.965 293.082 425.38 295.435 424.725 298.848C423.763 303.895 423.035 309.039 421.425 313.883C416.807 327.778 412.456 341.818 406.738 355.276C401.715 367.1 383.777 370.974 374.064 360.808C363.315 349.558 357.298 336.043 352.858 321.461C346.557 300.781 346.557 279.543 347.488 258.361C347.884 249.271 350.65 240.204 352.979 231.292C354.694 224.741 362.733 219.767 369.486 219.492C375.964 219.225 382.111 220.123 385.864 225.744C388.266 229.334 389.956 233.791 390.611 238.069C391.946 246.715 393.207 255.522 392.981 264.217C392.455 284.428 389.382 304.324 381.254 323.047C379.207 327.77 379.199 331.935 381.318 336.415C384.06 342.206 386.697 348.054 389.382 353.877L391.056 353.4L391.072 353.392ZM371.37 229.14C368.734 257.245 370.254 285.277 374.872 313.77C378.811 285.018 378.585 257.002 371.37 229.14Z" fill="black"/>
<path d="M82.64 391.646C85.7214 392.762 88.172 393.644 90.7601 394.582C89.8866 397.178 88.2448 400.049 88.0426 403.009C87.3228 413.515 93.4047 421.183 104.978 422.857C115.686 424.41 126.152 422.145 135.582 416.564C147.948 409.245 148.207 396.693 141.114 387.23C133.544 377.129 125.181 367.545 116.455 358.422C105.132 346.59 92.8709 335.671 81.4673 323.912C74.8678 317.102 68.6888 309.775 66.7315 299.867C64.6045 289.119 66.8529 279.688 74.2612 271.593C84.1929 260.739 96.8177 255.983 111.27 255.935C119.536 255.911 127.341 258.24 133.681 263.634C135.42 265.114 136.1 268.535 136.172 271.091C136.237 273.598 132.315 274.868 130.074 273.331C124.567 269.538 118.905 265.883 111.893 266.417C100.902 267.258 92.4423 271.439 89.3285 282.325C87.0882 290.154 89.4175 297.789 94.3672 303.579C102.762 313.414 112.273 322.286 121.226 331.652C136.116 347.229 152.146 361.851 162.126 381.488C170.416 397.801 164.706 410.555 151.442 420.673C136.318 432.206 118.671 434.527 100.441 433.395C91.2777 432.821 83.1819 429.117 78.0543 420.802C73.7112 413.774 73.2098 402.128 78.8307 394.792C80.0034 393.264 81.8636 392.269 82.64 391.654V391.646Z" fill="black"/>
<path d="M214.073 384.375C215.383 378.803 217.073 373.279 217.915 367.634C219.306 358.317 219.92 348.879 221.425 339.586C221.732 337.709 224.304 335.283 226.245 334.822C228.534 334.272 231.292 335.485 233.766 336.197C234.098 336.294 234.074 337.928 234.082 338.85C234.227 352.744 233.192 366.582 227.442 379.361C223.722 387.627 217.947 395.083 207.498 394.064C201.569 393.482 198.27 389.843 195.326 385.5C188.678 375.681 185.588 364.407 183.396 353.028C180.444 337.709 178.39 322.222 175.996 306.798C175.309 302.35 174.799 297.878 174.12 292.734C168.378 294.084 162.846 295.516 157.249 296.656C151.927 297.748 146.573 298.775 141.179 299.358C138.202 299.681 135.121 298.969 132.08 298.824C129.225 298.686 127.114 297.619 126.75 294.562C126.443 291.974 129.257 289.038 132.452 289.054C145.595 289.151 158.09 285.665 170.683 282.608C172.777 282.098 173.246 281.904 173.02 279.373C172.486 273.17 172.696 266.877 172.907 260.634C172.996 257.876 177.832 254.665 181.722 254.277C185.491 253.905 188.467 255.175 189.519 258.96C191.031 264.403 192.172 269.951 193.684 276.332C198.213 275.394 203.219 274.577 208.104 273.315C221.506 269.854 234.834 266.077 248.26 262.704C251.826 261.807 255.628 261.798 259.34 261.588C262.268 261.426 263.61 263.327 264.103 265.972C264.597 268.6 263.141 269.935 260.836 270.412C254.01 271.811 247.063 272.757 240.334 274.52C226.302 278.184 212.391 282.333 198.383 286.11C195.407 286.911 195.018 288.69 195.382 291.165C198.318 310.972 200.979 330.835 204.327 350.577C206.26 361.948 209.326 373.125 211.881 384.392C212.609 384.392 213.329 384.392 214.057 384.392L214.073 384.375Z" fill="black"/>
<path d="M280.724 128.521C281.791 129.209 282.778 130.09 283.926 130.551C288.14 132.25 292.435 133.746 296.648 135.461C297.425 135.776 297.942 136.739 298.581 137.402C297.675 137.572 296.64 138.113 295.88 137.855C291.318 136.294 286.838 134.49 282.276 132.921C281.387 132.614 280.254 133.002 279.227 133.075C279.955 133.827 280.554 134.919 281.435 135.275C285.908 137.078 290.477 138.623 294.942 140.418C295.662 140.71 296.05 141.801 296.592 142.521C295.71 142.651 294.707 143.104 293.963 142.845C289.41 141.276 284.929 139.488 280.384 137.895C279.397 137.547 278.233 137.709 277.157 137.628C277.06 138.073 276.955 138.51 276.858 138.955C280.61 140.467 284.347 141.996 288.108 143.476C289.725 144.115 291.456 144.495 292.993 145.271C293.737 145.651 294.157 146.678 294.723 147.406C293.85 147.536 292.863 147.989 292.119 147.738C287.307 146.08 282.559 144.252 277.772 142.521C277.1 142.279 276.356 142.271 275.216 143.047C276.065 143.581 276.858 144.26 277.78 144.616C282.147 146.331 286.579 147.883 290.922 149.663C291.901 150.059 292.596 151.135 293.421 151.895L292.564 153.1C286.498 150.868 280.432 148.644 274.367 146.411L273.582 147.358C274.262 148.029 274.82 148.983 275.636 149.323C280.093 151.159 284.638 152.776 289.078 154.637C289.968 155.009 290.558 156.092 291.286 156.845C290.275 156.958 289.151 157.419 288.277 157.128C283.716 155.583 279.163 153.99 274.723 152.129C272.272 151.102 271.617 152.065 271.245 154.451C276.267 156.392 281.257 158.284 286.199 160.266C287.275 160.694 288.407 161.309 289.135 162.166C289.588 162.708 289.588 163.954 289.288 164.682C289.127 165.086 287.825 165.409 287.242 165.207C279.527 162.506 271.795 159.805 264.168 156.861C261.475 155.825 261.782 153.634 262.712 151.191C269.506 133.415 275.717 115.403 283.118 97.8853C286.239 90.5013 282.454 85.1796 280.392 79.2998C279.785 77.561 276.057 77.0272 273.938 75.6603C272.345 74.6413 270.299 73.4524 269.708 71.8672C260.973 48.4291 252.449 24.9101 244.58 0.91394C245.574 2.14327 246.788 3.25937 247.524 4.62619C260.925 29.4149 274.278 54.2361 287.647 79.041C287.938 79.5829 288.366 80.052 289.183 81.1681C291.715 74.3825 294.012 68.1711 296.349 61.976C303.337 43.439 310.47 24.9586 317.256 6.34887C318.728 2.31311 320.604 1.86829 324.179 3.31598C330.261 5.78273 336.715 7.55393 340.435 14.4042C335.493 12.6168 330.851 10.9427 326.209 9.26043L325.165 10.0288C325.804 10.9427 326.241 12.3257 327.106 12.6896C332.283 14.8733 337.548 16.8224 343.031 18.9414C342.691 19.7906 342.368 20.5994 342.053 21.4081C330.196 17.03 323.882 15.5715 323.111 17.0327C328.328 19.0546 333.552 21.0199 338.704 23.1389C339.659 23.5271 340.346 24.5543 341.163 25.2821C340.88 25.6865 340.597 26.0909 340.306 26.4953C335.218 24.5704 330.156 22.5809 325.028 20.7773C323.968 20.4053 322.666 20.7126 321.469 20.7126C322.302 21.4971 322.998 22.6132 323.993 23.0176C328.198 24.7484 332.517 26.2041 336.731 27.9187C337.726 28.3231 338.478 29.326 339.343 30.0539C339.052 30.4825 338.753 30.9112 338.462 31.3398C333.132 29.3907 327.826 27.3849 322.464 25.5329C321.583 25.2255 320.475 25.549 319.472 25.5814L319.415 26.9563C325.376 29.2613 331.336 31.5744 337.305 33.8794L337.345 35.1815C336.294 35.2947 335.121 35.7719 334.207 35.4565C329.646 33.8955 325.182 32.0677 320.628 30.4825C319.674 30.1509 318.509 30.434 317.442 30.434L317.345 31.8251C323.427 34.1462 329.517 36.4674 335.599 38.7967L335.558 40.1392C334.474 40.2201 333.277 40.6487 332.331 40.3252C327.64 38.7401 323.022 36.9365 318.356 35.2543C317.62 34.9874 316.803 34.9712 316.026 34.8418C315.873 35.2057 315.719 35.5697 315.565 35.9417C316.706 36.5402 317.798 37.2438 318.986 37.721C323.095 39.3547 327.26 40.8267 331.336 42.5332C332.291 42.9295 332.962 43.989 333.771 44.7411C333.488 45.1051 333.205 45.469 332.922 45.833C326.856 43.6007 320.79 41.3605 314.724 39.1283L313.891 40.3576C314.748 41.0612 315.493 42.0398 316.471 42.428C320.458 44.0132 324.567 45.2992 328.522 46.9491C329.727 47.4586 330.584 48.8011 331.595 49.7636C330.293 49.6989 328.894 49.9172 327.713 49.5129C322.804 47.8064 317.959 45.9057 313.09 44.0779C312.791 44.4095 312.492 44.7411 312.193 45.0808C313.002 45.8734 313.673 47.0138 314.643 47.402C319.706 49.4482 324.842 51.3083 329.945 53.2332L330.01 54.5272C328.894 54.6404 327.64 55.1257 326.67 54.8022C322.1 53.2736 317.628 51.462 313.082 49.8849C312.209 49.5776 311.133 49.8444 310.147 49.8444L309.985 51.2194C316.034 53.5648 322.076 55.9021 328.126 58.2476C328.142 58.6843 328.158 59.121 328.174 59.5578C327.139 59.6953 325.974 60.2129 325.093 59.9136C320.531 58.3446 316.067 56.5006 311.513 54.9154C310.648 54.6162 309.524 55.0529 308.521 55.1581C309.289 55.8859 309.928 56.9131 310.834 57.2851C315.177 59.0401 319.617 60.5364 323.952 62.3157C324.793 62.6634 325.303 63.8119 325.966 64.5883C325.012 64.7015 323.944 65.1544 323.135 64.8714C317.846 63.0193 312.605 61.0055 307.348 59.0482L306.442 60.1401C307.227 60.8033 307.906 61.7172 308.812 62.0892C313.883 64.1435 319.011 66.0683 324.122 68.0417L324.421 69.2064C323.394 69.449 322.213 70.1365 321.372 69.8453C316.803 68.2925 312.338 66.4404 307.785 64.8309C306.839 64.4993 305.674 64.7824 304.607 64.7824L304.388 66.0522C310.413 68.3652 316.439 70.6783 322.464 72.9914C322.48 73.4443 322.496 73.8972 322.513 74.342C321.405 74.4715 320.159 74.981 319.205 74.6575C314.894 73.2017 310.68 71.4871 306.402 69.9262C305.351 69.538 304.218 69.3762 303.118 69.1174L302.593 70.1365C303.272 70.6864 303.862 71.4386 304.639 71.7459C308.998 73.4524 313.438 74.981 317.781 76.7441C318.93 77.2132 319.836 78.2969 320.855 79.0895L320.046 80.4159C313.907 78.208 307.777 76 301.638 73.7921C301.412 74.3178 301.185 74.8435 300.967 75.3611C306.143 79.3402 313.09 79.8498 318.906 84.2009C317.911 84.3546 316.795 84.8884 315.954 84.6053C311.384 83.0687 306.903 81.2894 302.358 79.7042C301.363 79.3564 300.207 79.502 299.123 79.4211L298.808 80.8041C304.825 83.1334 310.842 85.4545 316.859 87.7838L317.053 88.9161C316.148 89.1587 315.104 89.8381 314.36 89.5873C309.791 88.0507 305.294 86.2876 300.765 84.6458C299.754 84.2818 298.67 84.0796 297.627 83.8046L297.134 84.9612C298.541 85.681 299.891 86.5383 301.363 87.1044C305.108 88.5602 308.933 89.7895 312.646 91.3181C313.713 91.7629 314.49 92.9195 315.396 93.7444L314.651 94.9171C308.416 92.6768 302.172 90.4285 295.937 88.1882C295.718 88.6653 295.508 89.1344 295.289 89.6116C296.236 90.2505 297.109 91.0836 298.153 91.488C302.39 93.1459 306.709 94.5855 310.915 96.3163C311.902 96.7207 312.541 97.95 313.341 98.7992L312.427 99.7536C308.836 98.4595 305.245 97.1655 300.676 95.5156C301.824 96.8258 302.196 97.5214 302.771 97.853C309.394 101.573 315.816 105.787 322.755 108.787C330.956 112.33 335.93 118.21 337.313 126.629C338.64 134.692 336.65 142.093 329.509 147.325C320.345 154.046 306.022 149.339 301.307 137.636C300.045 134.506 298.314 133.026 295.281 132.072C290.639 130.616 286.126 128.724 281.565 127.025L280.707 128.53L280.724 128.521ZM305.229 127.842C305.229 128.376 305.189 128.918 305.229 129.452C306.022 139.383 315.145 146.525 323.354 143.654C329.783 141.405 333.067 133.827 331.021 125.933C329.08 118.428 322.496 113.6 315.404 114.473C309.483 115.201 305.189 120.83 305.213 127.842H305.229ZM275.79 74.4472C277.464 72.1988 279.219 70.8643 279.114 69.7078C279.009 68.5432 277.173 66.9984 275.847 66.683C275.103 66.5132 273.089 68.4704 273.032 69.538C272.967 70.7996 274.399 72.1341 275.79 74.4472ZM298.161 130.22C296.705 126.677 285.463 122.359 282.042 124.097C287.59 126.208 292.653 128.125 298.161 130.22ZM283.999 119.674C288.261 121.267 292.103 122.706 296.575 124.372C294.335 119.868 286.684 117.102 283.999 119.674ZM293.454 117.692L294.181 116.269C291.796 115.128 289.41 113.996 287.024 112.856C286.741 113.43 286.45 113.996 286.167 114.57C288.593 115.614 291.027 116.657 293.454 117.692Z" fill="black"/>
<path d="M454.059 318.404C456.121 324.712 457.1 331.474 462.138 336.512C464.524 338.898 466.967 339.553 470.396 338.47C478.856 335.785 483.943 329.436 488.634 322.602C496.058 311.796 498.848 299.277 501.412 286.741C502.229 282.745 504.906 281.185 508.093 280.238C511.951 279.098 514.474 281.29 514.393 285.398C514.207 295.063 511.376 304.162 507.866 313.018C503.992 322.788 499.172 332.097 491.594 339.594C480.166 350.9 461.516 354.758 448.786 347.868C439.032 342.586 432.958 334.062 430.661 323.516C428.178 312.152 427.693 300.538 430.297 288.965C432.473 279.3 437.083 271.285 446.06 266.756C455.329 262.081 465.091 259.558 475.564 263.1C483.951 265.939 489.402 273.582 488.512 282.462C488.011 287.541 487.607 292.871 485.746 297.514C481.258 308.723 471.981 314.514 460.569 317.231C458.515 317.717 456.412 317.984 454.067 318.404H454.059ZM452.288 311.093C459.761 310.122 464.508 307.47 466.967 304.509C473.122 297.069 473.259 283.643 468.229 275.653C466.053 272.199 463.133 271.706 460.408 274.836C458.37 277.173 456.615 279.979 455.555 282.883C452.296 291.868 451.916 301.266 452.288 311.085V311.093Z" fill="black"/>
<path d="M269.223 76.8087C273.04 78.2915 274.375 80.8768 273.226 84.5648C267.759 102.204 262.405 119.884 256.776 137.474C254.471 144.681 249.554 149.76 242.048 151.587C232.44 153.933 222.961 147.94 220.446 138.283C217.308 126.241 223.358 115.177 234.842 110.348C249.384 104.234 260.957 94.6016 267.622 79.8497C268.058 78.8873 268.608 77.9653 269.215 76.8087H269.223ZM251.932 128.715C251.932 118.679 242.558 112.459 233.597 117.619C225.849 122.084 223.358 134.11 228.704 141.276C232.715 146.654 239.776 147.713 245.065 143.645C249.586 140.168 252.109 135.639 251.932 128.715Z" fill="black"/>
<path d="M490.138 224.377C484.331 229.189 478.557 234.041 472.709 238.805C467.695 242.889 462.47 246.739 457.569 250.961C453.153 254.762 443.925 254.139 440.633 249.376C440.229 248.793 440.472 247.224 441.005 246.634C449.085 237.6 457.229 228.615 465.446 219.71C466.368 218.707 468.043 217.429 469.062 217.656C476.066 219.209 482.989 221.133 489.936 222.937C490.001 223.422 490.065 223.908 490.138 224.385V224.377Z" fill="black"/>
<path d="M307.122 0.444792C300.134 23.0984 293.146 45.752 285.819 69.5136C283.166 64.7338 280.926 60.9003 278.952 56.9373C278.613 56.2498 279.276 54.9396 279.705 54.0257C287.711 37.0739 295.734 20.1302 303.806 3.21078C304.356 2.05424 305.27 1.07563 306.014 0.00805664L307.122 0.452879V0.444792Z" fill="black"/>
<path d="M450.889 458.661C448.907 448.616 446.926 438.571 444.944 428.534C445.454 428.3 445.955 428.065 446.465 427.831C449.263 432.133 452.061 436.428 455.45 441.628C456.534 435.255 457.44 429.917 458.353 424.579L460.141 424.547C462.535 435.271 464.921 445.996 467.315 456.72C466.748 456.865 466.174 457.011 465.608 457.148C463.691 449.053 461.783 440.949 459.866 432.853L459.154 432.821C458.192 436.897 457.229 440.981 456.267 445.057C455.846 445.041 455.426 445.025 455.005 445.009C453.234 441.919 451.455 438.822 449.683 435.732C449.4 435.781 449.117 435.837 448.826 435.886C450.104 443.391 451.39 450.897 452.668 458.41C452.077 458.499 451.495 458.58 450.905 458.669L450.889 458.661Z" fill="black"/>
<path d="M202.669 476.721C205.274 477.497 208.452 477.602 210.345 479.22C212.552 481.104 213.321 484.315 210.708 487.437C216.135 489.588 219.241 493.681 220.066 499.099C220.438 501.542 220.098 504.647 218.812 506.637C217.526 508.643 214.671 509.646 212.504 511.085C211.38 509.136 209.795 507.316 209.196 505.214C206.648 496.261 204.392 487.227 202.03 478.225C202.241 477.724 202.451 477.23 202.661 476.729L202.669 476.721ZM212.148 508.918C217.437 507.591 219.346 504.704 218.279 500.151C216.41 492.16 212.916 488.844 207.077 490.171C208.767 496.438 210.458 502.682 212.148 508.918ZM206.301 487.558C209.536 486.855 210.442 484.954 209.746 482.495C209.051 480.053 207.441 478.451 204.157 479.43C204.893 482.228 205.581 484.833 206.301 487.558Z" fill="black"/>
<path d="M438.061 464.363C437.657 463.36 437.075 462.397 436.873 461.362C435.053 451.916 433.282 442.469 431.535 433.007C431.09 430.58 433.783 428.914 436.727 429.747C440.488 430.807 442.801 436.121 441.458 440.803C441.135 441.952 440.544 443.019 440.973 443.836C442.736 449.126 444.507 454.415 446.27 459.704C445.688 459.906 445.106 460.117 444.515 460.319C443.982 458.823 443.391 457.335 442.922 455.814C442.413 454.156 442.316 452.288 441.483 450.824C440.585 449.239 439.048 448.009 437.786 446.626C437.495 448.244 436.792 449.91 437.002 451.463C437.552 455.652 438.49 459.785 439.275 463.942L438.045 464.363H438.061ZM433.718 432.174C434.414 436.234 435.077 440.083 435.756 444.063C439.105 442.283 440.415 438.328 439.016 434.657C438.207 432.538 436.913 430.847 433.71 432.174H433.718Z" fill="black"/>
<path d="M230.281 487.785C231.995 492.969 233.71 498.153 235.425 503.329L234.05 503.863C230.265 500.102 233.128 492.265 225.412 489.677C226.48 496.253 227.418 501.987 228.348 507.713C227.887 507.81 227.426 507.915 226.965 508.012C226.14 504.534 225.186 501.073 224.53 497.563C223.293 490.987 222.193 484.388 221.134 477.78C220.94 476.599 220.883 474.408 221.271 474.278C222.945 473.744 224.975 473.267 226.569 473.761C230.297 474.933 231.987 480.182 230.459 484.744C230.119 485.755 229.65 486.717 229.237 487.704C229.593 487.728 229.941 487.744 230.297 487.768L230.281 487.785ZM224.983 487.768C229.068 485.302 229.787 478.314 226.569 475.92C225.897 475.427 224.733 475.038 224.061 475.289C223.536 475.483 223.058 476.802 223.164 477.538C223.625 480.829 224.312 484.089 224.983 487.76V487.768Z" fill="black"/>
<path d="M350.092 445.518C354.443 447.112 364.803 473.93 363.606 478.702C360.492 477.125 363.04 470.234 356.643 471.609C351.103 472.798 355.179 477.513 352.178 479.931C351.491 468.584 350.803 457.237 350.092 445.518ZM353.036 451.406C352.744 451.447 352.453 451.487 352.162 451.527C352.712 457.569 353.262 463.61 353.852 470.056C355.858 469.571 357.468 469.175 359.409 468.706C357.217 462.753 355.13 457.076 353.044 451.406H353.036Z" fill="black"/>
<path d="M405.112 469.959C404.19 467.573 403.26 465.188 402.176 462.389C400.066 462.761 397.939 463.133 395.625 463.538V471.083C395.164 471.108 394.712 471.132 394.251 471.156C393.523 459.809 392.795 448.47 392.075 437.123L393.11 436.549C393.798 437.067 394.857 437.439 395.116 438.118C398.869 447.953 402.532 457.82 406.148 467.711C406.358 468.293 406.002 469.086 405.913 469.789C405.646 469.846 405.379 469.903 405.112 469.959ZM394.97 442.259C394.695 442.243 394.42 442.235 394.145 442.219C394.703 448.422 395.27 454.617 395.868 461.225C397.955 460.691 399.564 460.286 401.4 459.817C399.176 453.743 397.073 448.001 394.97 442.267V442.259Z" fill="black"/>
<path d="M483.166 445.842C482.956 447.29 483.134 448.956 482.455 450.128C481.525 451.738 480.085 453.881 478.597 454.124C476.882 454.399 474.124 453.396 473.113 452.005C467.768 444.677 466.069 436.161 467.056 427.313C467.266 425.429 469.846 423.132 471.86 422.282C474.626 421.118 476.963 423.382 477.812 425.801C480.093 432.295 481.897 438.959 483.886 445.559C483.644 445.656 483.401 445.753 483.166 445.85V445.842ZM481.128 446.529C481.46 446.4 481.8 446.262 482.131 446.133C479.875 439.517 477.723 432.861 475.265 426.326C474.86 425.259 472.822 423.86 472.014 424.11C470.825 424.49 469.409 426.124 469.239 427.378C468.859 430.208 468.673 433.249 469.328 435.991C470.493 440.876 472.119 445.688 474.035 450.331C474.529 451.519 476.777 452.385 478.314 452.538C478.953 452.603 479.923 450.476 480.538 449.247C480.934 448.438 480.95 447.443 481.145 446.529H481.128Z" fill="black"/>
<path d="M166.372 517.669C164.698 508.295 162.975 499.148 161.479 489.96C160.905 486.41 162.546 485.051 165.878 486.571C168.022 487.55 170.666 489.402 171.273 491.408C173.06 497.328 174.508 503.483 174.993 509.629C175.381 514.571 171.985 517.232 166.364 517.661L166.372 517.669ZM168.078 516.059C173.012 514.175 174.168 509.912 172.632 501.21C171.103 492.548 168.378 488.731 163.379 488.61C164.932 497.692 166.485 506.718 168.086 516.067L168.078 516.059Z" fill="black"/>
<path d="M382.693 475.694C380.437 464.621 378.18 453.541 375.948 442.591C380.178 440.302 383.769 441.353 385.977 445.195C388.872 450.217 388.597 456.534 384.699 460.553C382.539 462.777 382.628 464.994 383.033 467.525C383.453 470.162 383.931 472.782 384.383 475.41L382.693 475.702V475.694ZM381.65 460.044C385.766 456.938 386.559 452.296 384.173 446.918C383.178 444.669 381.965 442.631 378.593 443.739C379.62 449.231 380.615 454.528 381.65 460.044Z" fill="black"/>
<path d="M235.627 472.111C236.201 474.181 236.767 476.251 237.357 478.314C239.088 484.355 240.706 490.429 242.655 496.398C243.286 498.339 244.442 500.539 248.429 499.132C246.585 489.604 244.717 479.907 242.841 470.21L243.908 469.846C244.369 470.655 245.073 471.415 245.259 472.28C246.941 480.126 248.688 487.971 250.015 495.88C250.282 497.474 249.271 500.175 248.009 500.879C246.78 501.574 243.577 501.008 242.8 499.908C237.058 491.707 236.088 481.945 233.864 472.604C234.454 472.442 235.036 472.272 235.627 472.111Z" fill="black"/>
<path d="M269.207 499.18C266.295 495.12 263.375 491.06 260.464 487C260.003 487.049 259.542 487.097 259.081 487.146V501.137C258.588 501.113 258.094 501.081 257.593 501.057C257.593 496.819 257.067 492.5 257.755 488.375C258.329 484.938 257.528 482.471 255.555 479.915C253.387 477.109 251.414 474.157 249.764 470.922C254.164 471.569 254.398 476.446 257.9 478.71C258.232 474.472 258.539 470.461 258.854 466.441C259.469 466.482 260.092 466.514 260.707 466.554C260.707 468.439 261.135 470.453 260.634 472.192C258.321 480.247 261.604 486.482 266.586 492.338C268.115 494.133 269.344 496.188 270.711 498.129C270.21 498.485 269.7 498.832 269.199 499.188L269.207 499.18Z" fill="black"/>
<path d="M325.772 479.09C326.565 480.263 326.783 480.732 327.123 481.08C328.198 482.172 329.322 483.223 330.431 484.291C330.908 482.746 331.781 481.201 331.789 479.648C331.813 475.2 329.371 471.908 326.379 468.811C323.168 465.479 319.294 462.203 320.499 456.776C320.814 455.361 322.035 453.622 323.305 453.048C325.473 452.061 327.098 453.218 328.53 456.04C327.948 456.097 327.438 456.259 326.977 456.17C325.683 455.919 324.413 455.555 323.127 455.24C322.877 456.89 321.922 458.895 322.537 460.109C323.823 462.648 325.796 464.913 327.745 467.04C331.741 471.391 335.21 475.847 333.601 482.309C332.954 484.897 331.668 487.113 328.667 486.207C325.788 485.334 324.769 482.964 325.772 479.09Z" fill="black"/>
<path d="M190.926 513.989C188.29 514.668 185.653 515.339 182.701 516.1C180.444 506.33 178.196 496.843 176.142 487.308C175.972 486.523 176.894 484.865 177.63 484.63C179.733 483.959 182.005 483.814 184.205 483.458C184.318 483.822 184.432 484.186 184.545 484.55C182.62 485.245 180.695 485.941 178.309 486.798C179.239 491.173 180.202 495.694 181.221 500.499C183.243 500.021 185.127 499.585 187.02 499.148C187.141 499.488 187.262 499.835 187.384 500.175C185.572 501.048 183.76 501.93 181.803 502.876C182.555 506.524 183.275 510.034 184.043 513.778C186.534 513.374 188.694 513.026 190.845 512.679L190.918 513.997L190.926 513.989Z" fill="black"/>
<path d="M421.967 451.285C424.224 450.711 425.954 450.266 427.677 449.821L428.089 450.759C426.343 451.665 424.604 452.571 422.606 453.614C423.067 456.113 423.811 458.685 423.965 461.289C424.151 464.444 425.728 464.719 428.195 464.047C429.295 463.748 430.427 463.546 431.543 463.303C431.656 463.708 431.761 464.112 431.874 464.524C429.149 465.285 426.415 466.053 423.358 466.91C421.126 457.035 418.95 447.556 416.912 438.045C416.742 437.261 417.365 435.643 417.915 435.49C420.252 434.835 422.711 434.592 425.121 434.196L425.421 435.36C423.407 436.048 421.393 436.727 418.999 437.544C419.961 442.008 420.94 446.529 421.967 451.293V451.285Z" fill="black"/>
<path d="M315.485 458.184C313.503 458.774 311.53 459.364 309.128 460.084C310.09 464.589 311.061 469.102 312.088 473.898C314.093 473.389 315.937 472.919 317.79 472.45C317.935 472.766 318.073 473.081 318.218 473.389C316.504 474.278 314.789 475.176 312.743 476.235C313.414 479.737 314.102 483.344 314.829 487.162C317.377 486.733 319.536 486.369 321.696 486.005L321.971 487.13C319.245 487.89 316.528 488.658 313.511 489.499C311.271 479.64 309.079 470.162 307.033 460.659C306.863 459.882 307.518 458.256 308.092 458.103C310.438 457.448 312.896 457.213 315.315 456.817C315.371 457.27 315.428 457.723 315.485 458.184Z" fill="black"/>
<path d="M281.484 495.387C278.839 496.058 276.186 496.738 273.162 497.506C270.913 487.687 268.681 478.071 266.57 468.431C266.425 467.768 267.096 466.352 267.638 466.207C269.983 465.568 272.418 465.277 274.82 464.856L275.127 466.069C273.218 466.716 271.318 467.355 268.762 468.22C269.692 472.564 270.679 477.165 271.714 481.994C273.784 481.452 275.62 480.967 277.456 480.489C277.594 480.789 277.723 481.096 277.861 481.395C276.13 482.341 274.407 483.28 272.401 484.372C272.83 486.741 273.526 489.2 273.679 491.691C273.898 495.209 275.515 495.67 278.427 494.538C279.341 494.182 280.433 494.271 281.435 494.158L281.484 495.395V495.387Z" fill="black"/>
<path d="M419.751 466.093C417.09 467.129 414.437 468.164 411.162 469.442C408.485 458.281 405.864 447.354 403.244 436.428L404.215 435.765C404.862 436.945 405.8 438.053 406.107 439.315C408.08 447.354 409.9 455.434 411.793 463.489C412.003 464.395 412.31 465.269 412.682 466.498C414.971 465.948 417.171 465.422 419.371 464.897L419.751 466.085V466.093Z" fill="black"/>
<path d="M290.081 492.451C292.548 491.764 294.546 491.206 296.543 490.656C296.689 491.044 296.834 491.44 296.98 491.828C294.343 492.912 291.699 493.996 288.415 495.347C285.714 484.129 283.085 473.211 280.465 462.292C280.788 462.074 281.12 461.847 281.443 461.629C282.09 462.81 283.029 463.918 283.336 465.179C285.334 473.348 287.194 481.549 289.127 489.726C289.337 490.607 289.725 491.456 290.081 492.459V492.451Z" fill="black"/>
<path d="M303.005 489.184C305.464 488.537 307.47 488.003 309.475 487.477C309.629 487.89 309.775 488.302 309.928 488.715C307.259 489.75 304.59 490.785 301.331 492.047C298.646 480.91 296.009 470 293.381 459.09C293.704 458.863 294.028 458.637 294.343 458.41C294.998 459.559 295.953 460.642 296.252 461.88C298.258 470.04 300.11 478.241 302.035 486.418C302.245 487.307 302.633 488.149 302.997 489.184H303.005Z" fill="black"/>
</g>
<defs>
<clipPath id="clip0_29_440">
<rect width="582.467" height="608" fill="white"/>
</clipPath>
</defs>
</svg>
