<svg width="721" height="752" viewBox="0 0 721 752" fill="none" xmlns="http://www.w3.org/2000/svg">
<g clip-path="url(#clip0_48_3)">
<path d="M240.57 84.54C240.57 87.5 240.57 89.81 240.57 92.12C240.57 93.77 240.57 95.41 240.57 97C210.87 107.18 183.25 120.92 157.8 138.67C145.05 147.56 133.13 157.67 121.18 167.64C96.6599 188.08 77.1199 212.9 60.2499 239.74C39.3799 272.94 24.7599 308.83 17.9099 347.57C15.5399 360.95 14.1499 374.53 12.9499 388.08C12.0599 398.12 11.4299 408.3 12.0399 418.33C12.9299 432.89 14.7499 447.41 16.6899 461.87C19.9799 486.46 27.3399 510.02 37.2699 532.62C43.9699 547.87 51.8999 562.68 60.4799 576.97C70.3599 593.42 82.1299 608.58 94.9899 622.97C115.76 646.2 139.18 666.19 165.28 683.03C187.32 697.25 210.55 709.44 235.51 717.63C254.51 723.87 273.92 729.05 293.41 733.55C304.7 736.16 316.49 736.8 328.1 737.8C339.93 738.82 351.83 740 363.66 739.68C383.36 739.16 402.99 737.7 422.5 734.14C442.48 730.49 462.05 725.69 481.19 718.98C506.11 710.24 529.55 698.52 552.06 684.72C579.56 667.86 603.49 646.77 625.19 623.18C640.51 606.53 653.67 588.14 665.01 568.46C677.21 547.28 687.59 525.27 694.05 501.7C698.52 485.39 701.61 468.68 704.98 452.08C709.26 430.97 708.84 409.48 707.64 388.23C706.64 370.63 703.35 353.07 699.84 335.73C694.73 310.48 685.27 286.58 673.6 263.68C662.74 242.36 649.94 222.15 634.15 204.11C622.92 191.29 611.41 178.57 598.85 167.09C580.1 149.95 559.39 135.3 537.1 122.92C516.9 111.7 495.92 102.33 474.01 95.05C470.58 93.91 469.03 92.46 469.47 88.82C469.74 86.58 469.52 84.28 469.52 81.13C474.96 82.84 479.73 83.93 484.16 85.81C500.54 92.76 517.11 99.35 533.04 107.23C554.05 117.62 573.81 130.28 591.55 145.66C605.78 158 619.97 170.53 632.89 184.2C648.29 200.5 661.5 218.67 672.92 238.11C686.23 260.75 697.24 284.37 705.06 309.47C710.57 327.15 714.36 345.15 717.13 363.48C720.31 384.57 720.74 405.74 719.76 426.86C718.57 452.24 714.85 477.47 706.59 501.61C700.27 520.09 693.46 538.53 685.09 556.15C675 577.4 662.6 597.53 647.01 615.33C634.81 629.26 622.59 643.3 609.18 656.02C592.52 671.82 574.3 686 554.19 697.24C537.39 706.63 520.29 715.62 502.72 723.43C482.75 732.3 461.79 738.68 440.25 742.74C426.75 745.28 413.2 747.62 399.62 749.71C394.27 750.54 388.78 750.52 383.35 750.78C375.09 751.17 366.81 751.98 358.58 751.7C331.15 750.77 303.9 748.54 277.03 742.18C251.37 736.11 226.56 727.94 202.63 716.88C175.46 704.33 150.06 688.95 127.2 669.66C114.59 659.03 102.15 648.04 90.8199 636.08C70.8399 615 54.0999 591.44 40.1599 565.84C26.4999 540.74 16.0399 514.43 9.43993 486.73C5.91993 471.96 3.75993 456.78 2.13993 441.66C0.619926 427.56 -0.190074 413.27 0.119926 399.1C0.599926 377.09 3.69993 355.35 8.59993 333.78C14.7199 306.84 24.3199 281.31 36.8599 256.84C47.4699 236.13 59.8499 216.47 75.1099 198.84C85.4799 186.86 95.8599 174.77 107.31 163.86C127.03 145.07 148.88 128.91 172.53 115.23C193.94 102.84 216.23 92.51 240.64 84.53L240.57 84.54Z" fill="white"/>
<path d="M240.55 114.54C240.55 118.32 240.96 121.82 240.35 125.13C240.1 126.48 237.8 127.84 236.16 128.5C206.98 140.27 179.74 155.46 155.42 175.45C143.31 185.41 131.51 195.9 120.68 207.22C103.33 225.37 88.6199 245.59 76.5299 267.75C67.2499 284.75 59.1999 302.24 53.7599 320.78C49.5399 335.16 46.0699 349.78 42.9799 364.45C41.4299 371.79 41.2399 379.46 40.8499 387C40.2999 397.75 39.2999 408.58 39.9899 419.28C40.9699 434.49 42.7799 449.7 45.1999 464.76C48.4499 484.93 54.8799 504.3 62.8499 523.08C72.3399 545.44 83.9199 566.78 99.1699 585.67C111.59 601.06 124.91 615.87 139.12 629.61C154.07 644.07 171.2 656.09 189.15 666.72C214.3 681.62 240.67 693.82 269.14 700.87C284.17 704.59 299.33 707.92 314.58 710.66C323.14 712.2 331.97 712.29 340.69 712.84C348.45 713.32 356.29 714.31 363.98 713.71C382.81 712.24 401.69 710.71 420.34 707.88C456.07 702.46 489.66 690.11 520.94 672.28C537.48 662.85 552.89 651.35 568.3 640.09C577.05 633.69 585.31 626.41 592.84 618.62C613.45 597.3 631.31 573.94 645.34 547.61C658.11 523.65 667.73 498.61 673.41 472.16C676.12 459.53 677.87 446.6 678.84 433.71C679.93 419.18 680.49 404.51 679.76 389.98C678.82 371.19 675.45 352.65 670.61 334.4C665.44 314.92 658.34 296.16 649.28 278.22C639.37 258.61 628.05 239.78 613.31 223.34C602.04 210.78 591.05 197.74 578.36 186.74C564.06 174.35 548.45 163.27 532.56 152.94C513.05 140.26 491.69 130.99 469.74 123.11V110.3C478.9 113.88 487.57 117.03 496.06 120.62C518.73 130.21 540.01 142.37 560.06 156.6C581.16 171.58 599.71 189.38 616.83 208.73C636.18 230.6 651.6 255.02 663.96 281.42C674.67 304.28 682.05 328.19 687.02 352.95C691.94 377.44 693.21 402.21 691.64 426.92C690.49 444.95 687.15 462.94 683.51 480.68C677.92 507.92 667.27 533.52 653.51 557.53C644.45 573.34 633.75 588.37 622.45 602.7C612.85 614.87 601.74 625.96 590.58 636.78C574.51 652.36 556.35 665.36 537.16 676.86C512.95 691.37 487.45 703.22 460.24 710.72C443.45 715.35 426.27 718.78 409.08 721.65C396.95 723.68 384.53 724.26 372.21 724.76C359.7 725.26 347.08 725.74 334.65 724.67C308.56 722.41 282.84 718.03 257.71 710.1C237.99 703.88 218.84 696.47 200.62 686.81C179.62 675.67 159.41 663.17 141.59 647.27C130.72 637.57 119.74 627.88 109.77 617.28C94.8199 601.38 81.9199 583.78 70.7799 564.97C58.5699 544.36 48.1799 522.85 41.8799 499.71C37.4299 483.37 34.1799 466.68 30.8599 450.05C27.1899 431.6 27.0899 412.82 28.0299 394.18C28.9899 375.22 31.9199 356.46 36.3799 337.9C41.9499 314.69 50.2099 292.54 60.9499 271.36C71.4899 250.58 84.0499 230.99 99.4899 213.45C109.11 202.53 118.71 191.45 129.46 181.7C140.96 171.26 153.51 161.88 166.12 152.78C188.11 136.91 212.21 124.82 237.54 115.18C238.27 114.9 239.08 114.86 240.53 114.57L240.55 114.54Z" fill="white"/>
<path d="M385.26 434.75C392.64 417.5 400.11 400.29 407.34 382.97C408.94 379.13 413.44 377.12 419.02 378.6C423.94 379.9 425.98 382.44 424.11 387.11C418.98 399.96 414.07 413 407.55 425.16C400.79 437.77 392.24 449.41 384.54 461.51C383.88 462.54 383.49 463.87 383.36 465.1C381.65 481.12 380.62 497.25 378.16 513.16C376.18 525.97 371.33 538.06 359.51 545.24C348.73 551.79 339.45 552.41 331.48 543.43C327.46 538.9 324.36 529.42 329.06 523.07C329.45 522.54 330.15 522.04 330.19 521.49C331.12 508.09 340.81 499.08 346.87 488.27C348.94 484.57 351.02 480.75 353.79 477.6C359.2 471.43 358.7 464.67 357.67 457.24C356.34 447.65 356.06 437.91 355.11 428.2C352.48 440.93 347.66 452.8 340.23 463.29C334.18 471.83 327.17 477.45 315.1 474.13C308.73 472.37 304.56 467.72 302.62 461.92C300.21 454.72 298.71 447.14 297.58 439.62C295.88 428.29 295.01 416.83 293.38 405.48C292.96 402.53 291.42 399.54 289.73 397.02C287.43 393.6 289.2 391.21 291.43 389.46C297.73 384.51 305.3 383.11 312.88 384.67C319.88 386.11 321.78 392.75 322.27 398.64C323.47 413.1 323.65 427.64 324.5 442.13C324.83 447.83 325.84 453.49 326.56 459.17C326.59 459.4 326.84 459.6 327.9 461.18C331.66 450.69 335.59 441.42 338.29 431.8C342.43 417.07 345.97 402.17 349.19 387.21C349.93 383.75 348.56 379.74 347.77 376.06C346.76 371.38 348.26 367.96 352.44 365.95C355.5 364.48 358.74 362.82 362.02 362.5C374.61 361.29 376.99 365.01 379.07 375.78C381.11 386.36 381.48 397.29 382.33 408.08C383.02 416.78 383.32 425.5 383.8 434.21L385.26 434.77V434.75ZM360.2 498.4C354.37 511.95 342.82 523.85 347.71 541.26C361.34 529.17 357.23 512.74 360.2 498.4Z" fill="white"/>
<path d="M483.54 436.95C493.19 419.99 499.56 401.69 505.24 383.1C506.86 377.81 508.24 372.46 509.88 367.18C511.14 363.12 515.75 360.48 519.89 361.41C524.21 362.38 525.96 365.29 525.15 369.51C523.96 375.75 523.06 382.11 521.07 388.1C515.36 405.28 509.98 422.64 502.91 439.28C496.7 453.9 474.52 458.69 462.51 446.12C449.22 432.21 441.78 415.5 436.29 397.47C428.5 371.9 428.5 345.64 429.65 319.45C430.14 308.21 433.56 297 436.44 285.98C438.56 277.88 448.5 271.73 456.85 271.39C464.86 271.06 472.46 272.17 477.1 279.12C480.07 283.56 482.16 289.07 482.97 294.36C484.62 305.05 486.18 315.94 485.9 326.69C485.25 351.68 481.45 376.28 471.4 399.43C468.87 405.27 468.86 410.42 471.48 415.96C474.87 423.12 478.13 430.35 481.45 437.55L483.52 436.96L483.54 436.95ZM459.18 283.32C455.92 318.07 457.8 352.73 463.51 387.96C468.38 352.41 468.1 317.77 459.18 283.32Z" fill="white"/>
<path d="M102.18 484.25C105.99 485.63 109.02 486.72 112.22 487.88C111.14 491.09 109.11 494.64 108.86 498.3C107.97 511.29 115.49 520.77 129.8 522.84C143.04 524.76 155.98 521.96 167.64 515.06C182.93 506.01 183.25 490.49 174.48 478.79C165.12 466.3 154.78 454.45 143.99 443.17C129.99 428.54 114.83 415.04 100.73 400.5C92.5701 392.08 84.9301 383.02 82.5101 370.77C79.8801 357.48 82.6601 345.82 91.8201 335.81C104.1 322.39 119.71 316.51 137.58 316.45C147.8 316.42 157.45 319.3 165.29 325.97C167.44 327.8 168.28 332.03 168.37 335.19C168.45 338.29 163.6 339.86 160.83 337.96C154.02 333.27 147.02 328.75 138.35 329.41C124.76 330.45 114.3 335.62 110.45 349.08C107.68 358.76 110.56 368.2 116.68 375.36C127.06 387.52 138.82 398.49 149.89 410.07C168.3 429.33 188.12 447.41 200.46 471.69C210.71 491.86 203.65 507.63 187.25 520.14C168.55 534.4 146.73 537.27 124.19 535.87C112.86 535.16 102.85 530.58 96.5101 520.3C91.1401 511.61 90.5201 497.21 97.4701 488.14C98.9201 486.25 101.22 485.02 102.18 484.26V484.25Z" fill="white"/>
<path d="M264.69 475.26C266.31 468.37 268.4 461.54 269.44 454.56C271.16 443.04 271.92 431.37 273.78 419.88C274.16 417.56 277.34 414.56 279.74 413.99C282.57 413.31 285.98 414.81 289.04 415.69C289.45 415.81 289.42 417.83 289.43 418.97C289.61 436.15 288.33 453.26 281.22 469.06C276.62 479.28 269.48 488.5 256.56 487.24C249.23 486.52 245.15 482.02 241.51 476.65C233.29 464.51 229.47 450.57 226.76 436.5C223.11 417.56 220.57 398.41 217.61 379.34C216.76 373.84 216.13 368.31 215.29 361.95C208.19 363.62 201.35 365.39 194.43 366.8C187.85 368.15 181.23 369.42 174.56 370.14C170.88 370.54 167.07 369.66 163.31 369.48C159.78 369.31 157.17 367.99 156.72 364.21C156.34 361.01 159.82 357.38 163.77 357.4C180.02 357.52 195.47 353.21 211.04 349.43C213.63 348.8 214.21 348.56 213.93 345.43C213.27 337.76 213.53 329.98 213.79 322.26C213.9 318.85 219.88 314.88 224.69 314.4C229.35 313.94 233.03 315.51 234.33 320.19C236.2 326.92 237.61 333.78 239.48 341.67C245.08 340.51 251.27 339.5 257.31 337.94C273.88 333.66 290.36 328.99 306.96 324.82C311.37 323.71 316.07 323.7 320.66 323.44C324.28 323.24 325.94 325.59 326.55 328.86C327.16 332.11 325.36 333.76 322.51 334.35C314.07 336.08 305.48 337.25 297.16 339.43C279.81 343.96 262.61 349.09 245.29 353.76C241.61 354.75 241.13 356.95 241.58 360.01C245.21 384.5 248.5 409.06 252.64 433.47C255.03 447.53 258.82 461.35 261.98 475.28C262.88 475.28 263.77 475.28 264.67 475.28L264.69 475.26Z" fill="white"/>
<path d="M347.1 158.91C348.42 159.76 349.64 160.85 351.06 161.42C356.27 163.52 361.58 165.37 366.79 167.49C367.75 167.88 368.39 169.07 369.18 169.89C368.06 170.1 366.78 170.77 365.84 170.45C360.2 168.52 354.66 166.29 349.02 164.35C347.92 163.97 346.52 164.45 345.25 164.54C346.15 165.47 346.89 166.82 347.98 167.26C353.51 169.49 359.16 171.4 364.68 173.62C365.57 173.98 366.05 175.33 366.72 176.22C365.63 176.38 364.39 176.94 363.47 176.62C357.84 174.68 352.3 172.47 346.68 170.5C345.46 170.07 344.02 170.27 342.69 170.17C342.57 170.72 342.44 171.26 342.32 171.81C346.96 173.68 351.58 175.57 356.23 177.4C358.23 178.19 360.37 178.66 362.27 179.62C363.19 180.09 363.71 181.36 364.41 182.26C363.33 182.42 362.11 182.98 361.19 182.67C355.24 180.62 349.37 178.36 343.45 176.22C342.62 175.92 341.7 175.91 340.29 176.87C341.34 177.53 342.32 178.37 343.46 178.81C348.86 180.93 354.34 182.85 359.71 185.05C360.92 185.54 361.78 186.87 362.8 187.81L361.74 189.3C354.24 186.54 346.74 183.79 339.24 181.03L338.27 182.2C339.11 183.03 339.8 184.21 340.81 184.63C346.32 186.9 351.94 188.9 357.43 191.2C358.53 191.66 359.26 193 360.16 193.93C358.91 194.07 357.52 194.64 356.44 194.28C350.8 192.37 345.17 190.4 339.68 188.1C336.65 186.83 335.84 188.02 335.38 190.97C341.59 193.37 347.76 195.71 353.87 198.16C355.2 198.69 356.6 199.45 357.5 200.51C358.06 201.18 358.06 202.72 357.69 203.62C357.49 204.12 355.88 204.52 355.16 204.27C345.62 200.93 336.06 197.59 326.63 193.95C323.3 192.67 323.68 189.96 324.83 186.94C333.23 164.96 340.91 142.69 350.06 121.03C353.92 111.9 349.24 105.32 346.69 98.05C345.94 95.9 341.33 95.24 338.71 93.55C336.74 92.29 334.21 90.82 333.48 88.86C322.68 59.88 312.14 30.8 302.41 1.13C303.64 2.65 305.14 4.03 306.05 5.72C322.62 36.37 339.13 67.06 355.66 97.73C356.02 98.4 356.55 98.98 357.56 100.36C360.69 91.97 363.53 84.29 366.42 76.63C375.06 53.71 383.88 30.86 392.27 7.85C394.09 2.86 396.41 2.31 400.83 4.1C408.35 7.15 416.33 9.34 420.93 17.81C414.82 15.6 409.08 13.53 403.34 11.45L402.05 12.4C402.84 13.53 403.38 15.24 404.45 15.69C410.85 18.39 417.36 20.8 424.14 23.42C423.72 24.47 423.32 25.47 422.93 26.47C408.27 21.0567 400.463 19.2533 399.51 21.06C405.96 23.56 412.42 25.99 418.79 28.61C419.97 29.09 420.82 30.36 421.83 31.26C421.48 31.76 421.13 32.26 420.77 32.76C414.48 30.38 408.22 27.92 401.88 25.69C400.57 25.23 398.96 25.61 397.48 25.61C398.51 26.58 399.37 27.96 400.6 28.46C405.8 30.6 411.14 32.4 416.35 34.52C417.58 35.02 418.51 36.26 419.58 37.16C419.22 37.69 418.85 38.22 418.49 38.75C411.9 36.34 405.34 33.86 398.71 31.57C397.62 31.19 396.25 31.59 395.01 31.63L394.94 33.33C402.31 36.18 409.68 39.04 417.06 41.89L417.11 43.5C415.81 43.64 414.36 44.23 413.23 43.84C407.59 41.91 402.07 39.65 396.44 37.69C395.26 37.28 393.82 37.63 392.5 37.63L392.38 39.35C399.9 42.22 407.43 45.09 414.95 47.97L414.9 49.63C413.56 49.73 412.08 50.26 410.91 49.86C405.11 47.9 399.4 45.67 393.63 43.59C392.72 43.26 391.71 43.24 390.75 43.08C390.56 43.53 390.37 43.98 390.18 44.44C391.59 45.18 392.94 46.05 394.41 46.64C399.49 48.66 404.64 50.48 409.68 52.59C410.86 53.08 411.69 54.39 412.69 55.32C412.34 55.77 411.99 56.22 411.64 56.67C404.14 53.91 396.64 51.14 389.14 48.38L388.11 49.9C389.17 50.77 390.09 51.98 391.3 52.46C396.23 54.42 401.31 56.01 406.2 58.05C407.69 58.68 408.75 60.34 410 61.53C408.39 61.45 406.66 61.72 405.2 61.22C399.13 59.11 393.14 56.76 387.12 54.5C386.75 54.91 386.38 55.32 386.01 55.74C387.01 56.72 387.84 58.13 389.04 58.61C395.3 61.14 401.65 63.44 407.96 65.82L408.04 67.42C406.66 67.56 405.11 68.16 403.91 67.76C398.26 65.87 392.73 63.63 387.11 61.68C386.03 61.3 384.7 61.63 383.48 61.63L383.28 63.33C390.76 66.23 398.23 69.12 405.71 72.02C405.73 72.56 405.75 73.1 405.77 73.64C404.49 73.81 403.05 74.45 401.96 74.08C396.32 72.14 390.8 69.86 385.17 67.9C384.1 67.53 382.71 68.07 381.47 68.2C382.42 69.1 383.21 70.37 384.33 70.83C389.7 73 395.19 74.85 400.55 77.05C401.59 77.48 402.22 78.9 403.04 79.86C401.86 80 400.54 80.56 399.54 80.21C393 77.92 386.52 75.43 380.02 73.01L378.9 74.36C379.87 75.18 380.71 76.31 381.83 76.77C388.1 79.31 394.44 81.69 400.76 84.13L401.13 85.57C399.86 85.87 398.4 86.72 397.36 86.36C391.71 84.44 386.19 82.15 380.56 80.16C379.39 79.75 377.95 80.1 376.63 80.1L376.36 81.67C383.81 84.53 391.26 87.39 398.71 90.25C398.73 90.81 398.75 91.37 398.77 91.92C397.4 92.08 395.86 92.71 394.68 92.31C389.35 90.51 384.14 88.39 378.85 86.46C377.55 85.98 376.15 85.78 374.79 85.46L374.14 86.72C374.98 87.4 375.71 88.33 376.67 88.71C382.06 90.82 387.55 92.71 392.92 94.89C394.34 95.47 395.46 96.81 396.72 97.79L395.72 99.43C388.13 96.7 380.55 93.97 372.96 91.24C372.68 91.89 372.4 92.54 372.13 93.18C378.53 98.1 387.12 98.73 394.31 104.11C393.08 104.3 391.7 104.96 390.66 104.61C385.01 102.71 379.47 100.51 373.85 98.55C372.62 98.12 371.19 98.3 369.85 98.2L369.46 99.91C376.9 102.79 384.34 105.66 391.78 108.54L392.02 109.94C390.9 110.24 389.61 111.08 388.69 110.77C383.04 108.87 377.48 106.69 371.88 104.66C370.63 104.21 369.29 103.96 368 103.62L367.39 105.05C369.13 105.94 370.8 107 372.62 107.7C377.25 109.5 381.98 111.02 386.57 112.91C387.89 113.46 388.85 114.89 389.97 115.91L389.05 117.36C381.34 114.59 373.62 111.81 365.91 109.04C365.64 109.63 365.38 110.21 365.11 110.8C366.28 111.59 367.36 112.62 368.65 113.12C373.89 115.17 379.23 116.95 384.43 119.09C385.65 119.59 386.44 121.11 387.43 122.16L386.3 123.34C381.86 121.74 377.42 120.14 371.77 118.1C373.19 119.72 373.65 120.58 374.36 120.99C382.55 125.59 390.49 130.8 399.07 134.51C409.21 138.89 415.36 146.16 417.07 156.57C418.71 166.54 416.25 175.69 407.42 182.16C396.09 190.47 378.38 184.65 372.55 170.18C370.99 166.31 368.85 164.48 365.1 163.3C359.36 161.5 353.78 159.16 348.14 157.06L347.08 158.92L347.1 158.91ZM377.4 158.07C377.4 158.73 377.35 159.4 377.4 160.06C378.38 172.34 389.66 181.17 399.81 177.62C407.76 174.84 411.82 165.47 409.29 155.71C406.89 146.43 398.75 140.46 389.98 141.54C382.66 142.44 377.35 149.4 377.38 158.07H377.4ZM341 92.05C343.07 89.27 345.24 87.62 345.11 86.19C344.98 84.75 342.71 82.84 341.07 82.45C340.15 82.24 337.66 84.66 337.59 85.98C337.51 87.54 339.28 89.19 341 92.05ZM368.66 161.01C366.86 156.63 352.96 151.29 348.73 153.44C355.59 156.05 361.85 158.42 368.66 161.01ZM351.15 147.97C356.42 149.94 361.17 151.72 366.7 153.78C363.93 148.21 354.47 144.79 351.15 147.97ZM362.84 145.52L363.74 143.76C360.79 142.35 357.84 140.95 354.89 139.54C354.54 140.25 354.18 140.95 353.83 141.66C356.83 142.95 359.84 144.24 362.84 145.52Z" fill="white"/>
<path d="M561.42 393.69C563.97 401.49 565.18 409.85 571.41 416.08C574.36 419.03 577.38 419.84 581.62 418.5C592.08 415.18 598.37 407.33 604.17 398.88C613.35 385.52 616.8 370.04 619.97 354.54C620.98 349.6 624.29 347.67 628.23 346.5C633 345.09 636.12 347.8 636.02 352.88C635.79 364.83 632.29 376.08 627.95 387.03C623.16 399.11 617.2 410.62 607.83 419.89C593.7 433.87 570.64 438.64 554.9 430.12C542.84 423.59 535.33 413.05 532.49 400.01C529.42 385.96 528.82 371.6 532.04 357.29C534.73 345.34 540.43 335.43 551.53 329.83C562.99 324.05 575.06 320.93 588.01 325.31C598.38 328.82 605.12 338.27 604.02 349.25C603.4 355.53 602.9 362.12 600.6 367.86C595.05 381.72 583.58 388.88 569.47 392.24C566.93 392.84 564.33 393.17 561.43 393.69H561.42ZM559.23 384.65C568.47 383.45 574.34 380.17 577.38 376.51C584.99 367.31 585.16 350.71 578.94 340.83C576.25 336.56 572.64 335.95 569.27 339.82C566.75 342.71 564.58 346.18 563.27 349.77C559.24 360.88 558.77 372.5 559.23 384.64V384.65Z" fill="white"/>
<path d="M332.88 94.97C337.6 96.8033 339.25 100 337.83 104.56C331.07 126.37 324.45 148.23 317.49 169.98C314.64 178.89 308.56 185.17 299.28 187.43C287.4 190.33 275.68 182.92 272.57 170.98C268.69 156.09 276.17 142.41 290.37 136.44C308.35 128.88 322.66 116.97 330.9 98.73C331.44 97.54 332.12 96.4 332.87 94.97H332.88ZM311.5 159.15C311.5 146.74 299.91 139.05 288.83 145.43C279.25 150.95 276.17 165.82 282.78 174.68C287.74 181.33 296.47 182.64 303.01 177.61C308.6 173.31 311.72 167.71 311.5 159.15Z" fill="white"/>
<path d="M606.03 277.43C598.85 283.38 591.71 289.38 584.48 295.27C578.28 300.32 571.82 305.08 565.76 310.3C560.3 315 548.89 314.23 544.82 308.34C544.32 307.62 544.62 305.68 545.28 304.95C555.27 293.78 565.34 282.67 575.5 271.66C576.64 270.42 578.71 268.84 579.97 269.12C588.63 271.04 597.19 273.42 605.78 275.65C605.86 276.25 605.94 276.85 606.03 277.44V277.43Z" fill="white"/>
<path d="M379.74 0.549995C371.1 28.56 362.46 56.57 353.4 85.95C350.12 80.04 347.35 75.3 344.91 70.4C344.49 69.55 345.31 67.93 345.84 66.8C355.74 45.84 365.66 24.89 375.64 3.96999C376.32 2.53999 377.45 1.32999 378.37 0.00999451L379.74 0.559995V0.549995Z" fill="white"/>
<path d="M557.5 567.11C555.05 554.69 552.6 542.27 550.15 529.86C550.78 529.57 551.4 529.28 552.03 528.99C555.49 534.31 558.95 539.62 563.14 546.05C564.48 538.17 565.6 531.57 566.73 524.97L568.94 524.93C571.9 538.19 574.85 551.45 577.81 564.71C577.11 564.89 576.4 565.07 575.7 565.24C573.33 555.23 570.97 545.21 568.6 535.2L567.72 535.16C566.53 540.2 565.34 545.25 564.15 550.29C563.63 550.27 563.11 550.25 562.59 550.23C560.4 546.41 558.2 542.58 556.01 538.76C555.66 538.82 555.31 538.89 554.95 538.95C556.53 548.23 558.12 557.51 559.7 566.8C558.97 566.91 558.25 567.01 557.52 567.12L557.5 567.11Z" fill="white"/>
<path d="M250.59 589.44C253.81 590.4 257.74 590.53 260.08 592.53C262.81 594.86 263.76 598.83 260.53 602.69C267.24 605.35 271.08 610.41 272.1 617.11C272.56 620.13 272.14 623.97 270.55 626.43C268.96 628.91 265.43 630.15 262.75 631.93C261.36 629.52 259.4 627.27 258.66 624.67C255.51 613.6 252.72 602.43 249.8 591.3C250.06 590.68 250.32 590.07 250.58 589.45L250.59 589.44ZM262.31 629.25C268.85 627.61 271.21 624.04 269.89 618.41C267.58 608.53 263.26 604.43 256.04 606.07C258.13 613.82 260.22 621.54 262.31 629.25ZM255.08 602.84C259.08 601.97 260.2 599.62 259.34 596.58C258.48 593.56 256.49 591.58 252.43 592.79C253.34 596.25 254.19 599.47 255.08 602.84Z" fill="white"/>
<path d="M541.64 574.16C541.14 572.92 540.42 571.73 540.17 570.45C537.92 558.77 535.73 547.09 533.57 535.39C533.02 532.39 536.35 530.33 539.99 531.36C544.64 532.67 547.5 539.24 545.84 545.03C545.44 546.45 544.71 547.77 545.24 548.78C547.42 555.32 549.61 561.86 551.79 568.4C551.07 568.65 550.35 568.91 549.62 569.16C548.96 567.31 548.23 565.47 547.65 563.59C547.02 561.54 546.9 559.23 545.87 557.42C544.76 555.46 542.86 553.94 541.3 552.23C540.94 554.23 540.07 556.29 540.33 558.21C541.01 563.39 542.17 568.5 543.14 573.64L541.62 574.16H541.64ZM536.27 534.36C537.13 539.38 537.95 544.14 538.79 549.06C542.93 546.86 544.55 541.97 542.82 537.43C541.82 534.81 540.22 532.72 536.26 534.36H536.27Z" fill="white"/>
<path d="M284.73 603.12C286.85 609.53 288.97 615.94 291.09 622.34L289.39 623C284.71 618.35 288.25 608.66 278.71 605.46C280.03 613.59 281.19 620.68 282.34 627.76C281.77 627.88 281.2 628.01 280.63 628.13C279.61 623.83 278.43 619.55 277.62 615.21C276.09 607.08 274.73 598.92 273.42 590.75C273.18 589.29 273.11 586.58 273.59 586.42C275.66 585.76 278.17 585.17 280.14 585.78C284.75 587.23 286.84 593.72 284.95 599.36C284.53 600.61 283.95 601.8 283.44 603.02C283.88 603.05 284.31 603.07 284.75 603.1L284.73 603.12ZM278.18 603.1C283.23 600.05 284.12 591.41 280.14 588.45C279.31 587.84 277.87 587.36 277.04 587.67C276.39 587.91 275.8 589.54 275.93 590.45C276.5 594.52 277.35 598.55 278.18 603.09V603.1Z" fill="white"/>
<path d="M432.87 550.86C438.25 552.83 451.06 585.99 449.58 591.89C445.73 589.94 448.88 581.42 440.97 583.12C434.12 584.59 439.16 590.42 435.45 593.41C434.6 579.38 433.75 565.35 432.87 550.86ZM436.51 558.14C436.15 558.19 435.79 558.24 435.43 558.29C436.11 565.76 436.79 573.23 437.52 581.2C440 580.6 441.99 580.11 444.39 579.53C441.68 572.17 439.1 565.15 436.52 558.14H436.51Z" fill="white"/>
<path d="M500.9 581.08C499.76 578.13 498.61 575.18 497.27 571.72C494.66 572.18 492.03 572.64 489.17 573.14V582.47C488.6 582.5 488.04 582.53 487.47 582.56C486.57 568.53 485.67 554.51 484.78 540.48L486.06 539.77C486.91 540.41 488.22 540.87 488.54 541.71C493.18 553.87 497.71 566.07 502.18 578.3C502.44 579.02 502 580 501.89 580.87C501.56 580.94 501.23 581.01 500.9 581.08ZM488.36 546.83C488.02 546.81 487.68 546.8 487.34 546.78C488.03 554.45 488.73 562.11 489.47 570.28C492.05 569.62 494.04 569.12 496.31 568.54C493.56 561.03 490.96 553.93 488.36 546.84V546.83Z" fill="white"/>
<path d="M597.41 551.26C597.15 553.05 597.37 555.11 596.53 556.56C595.38 558.55 593.6 561.2 591.76 561.5C589.64 561.84 586.23 560.6 584.98 558.88C578.37 549.82 576.27 539.29 577.49 528.35C577.75 526.02 580.94 523.18 583.43 522.13C586.85 520.69 589.74 523.49 590.79 526.48C593.61 534.51 595.84 542.75 598.3 550.91C598 551.03 597.7 551.15 597.41 551.27V551.26ZM594.89 552.11C595.3 551.95 595.72 551.78 596.13 551.62C593.34 543.44 590.68 535.21 587.64 527.13C587.14 525.81 584.62 524.08 583.62 524.39C582.15 524.86 580.4 526.88 580.19 528.43C579.72 531.93 579.49 535.69 580.3 539.08C581.74 545.12 583.75 551.07 586.12 556.81C586.73 558.28 589.51 559.35 591.41 559.54C592.2 559.62 593.4 556.99 594.16 555.47C594.65 554.47 594.67 553.24 594.91 552.11H594.89Z" fill="white"/>
<path d="M205.71 640.07C203.64 628.48 201.51 617.17 199.66 605.81C198.95 601.42 200.98 599.74 205.1 601.62C207.75 602.83 211.02 605.12 211.77 607.6C213.98 614.92 215.77 622.53 216.37 630.13C216.85 636.24 212.65 639.53 205.7 640.06L205.71 640.07ZM207.82 638.08C213.92 635.75 215.35 630.48 213.45 619.72C211.56 609.01 208.19 604.29 202.01 604.14C203.93 615.37 205.85 626.53 207.83 638.09L207.82 638.08Z" fill="white"/>
<path d="M473.18 588.17C470.39 574.48 467.6 560.78 464.84 547.24C470.07 544.41 474.51 545.71 477.24 550.46C480.82 556.67 480.48 564.48 475.66 569.45C472.99 572.2 473.1 574.94 473.6 578.07C474.12 581.33 474.71 584.57 475.27 587.82L473.18 588.18V588.17ZM471.89 568.82C476.98 564.98 477.96 559.24 475.01 552.59C473.78 549.81 472.28 547.29 468.11 548.66C469.38 555.45 470.61 562 471.89 568.82Z" fill="white"/>
<path d="M291.34 583.74C292.05 586.3 292.75 588.86 293.48 591.41C295.62 598.88 297.62 606.39 300.03 613.77C300.81 616.17 302.24 618.89 307.17 617.15C304.89 605.37 302.58 593.38 300.26 581.39L301.58 580.94C302.15 581.94 303.02 582.88 303.25 583.95C305.33 593.65 307.49 603.35 309.13 613.13C309.46 615.1 308.21 618.44 306.65 619.31C305.13 620.17 301.17 619.47 300.21 618.11C293.11 607.97 291.91 595.9 289.16 584.35C289.89 584.15 290.61 583.94 291.34 583.74Z" fill="white"/>
<path d="M332.86 617.21C329.26 612.19 325.65 607.17 322.05 602.15C321.48 602.21 320.91 602.27 320.34 602.33V619.63C319.73 619.6 319.12 619.56 318.5 619.53C318.5 614.29 317.85 608.95 318.7 603.85C319.41 599.6 318.42 596.55 315.98 593.39C313.3 589.92 310.86 586.27 308.82 582.27C314.26 583.07 314.55 589.1 318.88 591.9C319.29 586.66 319.67 581.7 320.06 576.73C320.82 576.78 321.59 576.82 322.35 576.87C322.35 579.2 322.88 581.69 322.26 583.84C319.4 593.8 323.46 601.51 329.62 608.75C331.51 610.97 333.03 613.51 334.72 615.91C334.1 616.35 333.47 616.78 332.85 617.22L332.86 617.21Z" fill="white"/>
<path d="M402.8 592.37C403.78 593.82 404.05 594.4 404.47 594.83C405.8 596.18 407.19 597.48 408.56 598.8C409.15 596.89 410.23 594.98 410.24 593.06C410.27 587.56 407.25 583.49 403.55 579.66C399.58 575.54 394.79 571.49 396.28 564.78C396.67 563.03 398.18 560.88 399.75 560.17C402.43 558.95 404.44 560.38 406.21 563.87C405.49 563.94 404.86 564.14 404.29 564.03C402.69 563.72 401.12 563.27 399.53 562.88C399.22 564.92 398.04 567.4 398.8 568.9C400.39 572.04 402.83 574.84 405.24 577.47C410.18 582.85 414.47 588.36 412.48 596.35C411.68 599.55 410.09 602.29 406.38 601.17C402.82 600.09 401.56 597.16 402.8 592.37Z" fill="white"/>
<path d="M236.07 635.52C232.81 636.36 229.55 637.19 225.9 638.13C223.11 626.05 220.33 614.32 217.79 602.53C217.58 601.56 218.72 599.51 219.63 599.22C222.23 598.39 225.04 598.21 227.76 597.77C227.9 598.22 228.04 598.67 228.18 599.12C225.8 599.98 223.42 600.84 220.47 601.9C221.62 607.31 222.81 612.9 224.07 618.84C226.57 618.25 228.9 617.71 231.24 617.17C231.39 617.59 231.54 618.02 231.69 618.44C229.45 619.52 227.21 620.61 224.79 621.78C225.72 626.29 226.61 630.63 227.56 635.26C230.64 634.76 233.31 634.33 235.97 633.9L236.06 635.53L236.07 635.52Z" fill="white"/>
<path d="M521.74 557.99C524.53 557.28 526.67 556.73 528.8 556.18L529.31 557.34C527.15 558.46 525 559.58 522.53 560.87C523.1 563.96 524.02 567.14 524.21 570.36C524.44 574.26 526.39 574.6 529.44 573.77C530.8 573.4 532.2 573.15 533.58 572.85C533.72 573.35 533.85 573.85 533.99 574.36C530.62 575.3 527.24 576.25 523.46 577.31C520.7 565.1 518.01 553.38 515.49 541.62C515.28 540.65 516.05 538.65 516.73 538.46C519.62 537.65 522.66 537.35 525.64 536.86L526.01 538.3C523.52 539.15 521.03 539.99 518.07 541C519.26 546.52 520.47 552.11 521.74 558V557.99Z" fill="white"/>
<path d="M390.08 566.52C387.63 567.25 385.19 567.98 382.22 568.87C383.41 574.44 384.61 580.02 385.88 585.95C388.36 585.32 390.64 584.74 392.93 584.16C393.11 584.55 393.28 584.94 393.46 585.32C391.34 586.42 389.22 587.53 386.69 588.84C387.52 593.17 388.37 597.63 389.27 602.35C392.42 601.82 395.09 601.37 397.76 600.92L398.1 602.31C394.73 603.25 391.37 604.2 387.64 605.24C384.87 593.05 382.16 581.33 379.63 569.58C379.42 568.62 380.23 566.61 380.94 566.42C383.84 565.61 386.88 565.32 389.87 564.83C389.94 565.39 390.01 565.95 390.08 566.52Z" fill="white"/>
<path d="M348.04 612.52C344.77 613.35 341.49 614.19 337.75 615.14C334.97 603 332.21 591.11 329.6 579.19C329.42 578.37 330.25 576.62 330.92 576.44C333.82 575.65 336.83 575.29 339.8 574.77L340.18 576.27C337.82 577.07 335.47 577.86 332.31 578.93C333.46 584.3 334.68 589.99 335.96 595.96C338.52 595.29 340.79 594.69 343.06 594.1C343.23 594.47 343.39 594.85 343.56 595.22C341.42 596.39 339.29 597.55 336.81 598.9C337.34 601.83 338.2 604.87 338.39 607.95C338.66 612.3 340.66 612.87 344.26 611.47C345.39 611.03 346.74 611.14 347.98 611L348.04 612.53V612.52Z" fill="white"/>
<path d="M519 576.3C515.71 577.58 512.43 578.86 508.38 580.44C505.07 566.64 501.83 553.13 498.59 539.62L499.79 538.8C500.59 540.26 501.75 541.63 502.13 543.19C504.57 553.13 506.82 563.12 509.16 573.08C509.42 574.2 509.8 575.28 510.26 576.8C513.09 576.12 515.81 575.47 518.53 574.82L519 576.29V576.3Z" fill="white"/>
<path d="M358.67 608.89C361.72 608.04 364.19 607.35 366.66 606.67C366.84 607.15 367.02 607.64 367.2 608.12C363.94 609.46 360.67 610.8 356.61 612.47C353.27 598.6 350.02 585.1 346.78 571.6C347.18 571.33 347.59 571.05 347.99 570.78C348.79 572.24 349.95 573.61 350.33 575.17C352.8 585.27 355.1 595.41 357.49 605.52C357.75 606.61 358.23 607.66 358.67 608.9V608.89Z" fill="white"/>
<path d="M374.65 604.85C377.69 604.05 380.17 603.39 382.65 602.74C382.84 603.25 383.02 603.76 383.21 604.27C379.91 605.55 376.61 606.83 372.58 608.39C369.26 594.62 366 581.13 362.75 567.64C363.15 567.36 363.55 567.08 363.94 566.8C364.75 568.22 365.93 569.56 366.3 571.09C368.78 581.18 371.07 591.32 373.45 601.43C373.71 602.53 374.19 603.57 374.64 604.85H374.65Z" fill="white"/>
</g>
<defs>
<clipPath id="clip0_48_3">
<rect width="720.19" height="751.76" fill="white"/>
</clipPath>
</defs>
</svg>
